<svg width="70" height="48" viewBox="0 0 70 48" fill="none" xmlns="http://www.w3.org/2000/svg">
<rect width="70" height="48" rx="6" fill="#001426"/>
<path d="M15.2861 25H9.41504V12.0449H15.708C17.2959 12.0684 18.4209 12.5283 19.083 13.4248C19.4814 13.9756 19.6807 14.6348 19.6807 15.4023C19.6807 16.1934 19.4814 16.8291 19.083 17.3096C18.8604 17.5791 18.5322 17.8252 18.0986 18.0479C18.7607 18.2881 19.2588 18.6689 19.5928 19.1904C19.9326 19.7119 20.1025 20.3447 20.1025 21.0889C20.1025 21.8564 19.9092 22.5449 19.5225 23.1543C19.2764 23.5586 18.9688 23.8984 18.5996 24.1738C18.1836 24.4902 17.6914 24.707 17.123 24.8242C16.5605 24.9414 15.9482 25 15.2861 25ZM15.2246 19.2959H11.999V22.75H15.1807C15.749 22.75 16.1914 22.6738 16.5078 22.5215C17.082 22.2402 17.3691 21.7012 17.3691 20.9043C17.3691 20.2305 17.0908 19.7676 16.5342 19.5156C16.2236 19.375 15.7871 19.3018 15.2246 19.2959ZM16.5693 16.8262C16.9209 16.6152 17.0967 16.2373 17.0967 15.6924C17.0967 15.0889 16.8623 14.6904 16.3936 14.4971C15.9893 14.3623 15.4736 14.2949 14.8467 14.2949H11.999V17.1514H15.1807C15.749 17.1514 16.2119 17.043 16.5693 16.8262ZM29.9639 22.3369H25.1914L24.2949 25H21.4648L26.0879 12.0449H29.1465L33.7344 25H30.7988L29.9639 22.3369ZM29.208 20.1045L27.5908 15.0068L25.9209 20.1045H29.208ZM45.8633 25H43.1562L37.8652 15.7979V25H35.3428V12.0449H38.1816L43.3408 21.0889V12.0449H45.8633V25ZM59.873 25H56.3926L52.3936 19.3398L51.1016 20.667V25H48.4385V12.0449H51.1016V17.3799L56.1025 12.0449H59.6006L54.292 17.3799L59.873 25Z" fill="#FBF6EB"/>
<path d="M13.6917 28.1626V29.3733H11.646V35H10.208V29.3733H8.15308V28.1626H13.6917ZM17.4351 32.3188H15.96V35H14.5637V28.1626H17.9175C18.3968 28.1719 18.7648 28.2306 19.0215 28.3389C19.2812 28.4471 19.5008 28.6064 19.6802 28.8167C19.8286 28.9898 19.9461 29.1816 20.0327 29.3918C20.1193 29.6021 20.1626 29.8418 20.1626 30.1108C20.1626 30.4355 20.0806 30.7556 19.9167 31.071C19.7528 31.3834 19.4823 31.6045 19.105 31.7344C19.4204 31.8612 19.6431 32.0421 19.7729 32.2771C19.9059 32.509 19.9724 32.8647 19.9724 33.344V33.8032C19.9724 34.1156 19.9848 34.3274 20.0095 34.4387C20.0466 34.615 20.1332 34.7449 20.2693 34.8284V35H18.6968C18.6535 34.8485 18.6226 34.7263 18.604 34.6335C18.5669 34.4418 18.5468 34.2454 18.5437 34.0444L18.5344 33.4089C18.5282 32.9729 18.4478 32.6822 18.2932 32.5369C18.1417 32.3915 17.8556 32.3188 17.4351 32.3188ZM18.3025 31.0757C18.587 30.9458 18.7292 30.6891 18.7292 30.3057C18.7292 29.8913 18.5916 29.613 18.3164 29.4707C18.1618 29.3903 17.9299 29.3501 17.6206 29.3501H15.96V31.187H17.5789C17.9005 31.187 18.1417 31.1499 18.3025 31.0757ZM25.3997 33.5945H22.8809L22.4077 35H20.9141L23.354 28.1626H24.9683L27.3896 35H25.8403L25.3997 33.5945ZM25.0007 32.4163L24.1472 29.7258L23.2659 32.4163H25.0007ZM33.791 35H32.3623L29.5698 30.1433V35H28.2385V28.1626H29.7368L32.4597 32.9358V28.1626H33.791V35ZM37.6086 34.012C37.9457 34.012 38.2194 33.9749 38.4297 33.9006C38.8286 33.7584 39.0281 33.494 39.0281 33.1074C39.0281 32.8817 38.9291 32.7069 38.7312 32.5833C38.5333 32.4626 38.2225 32.356 37.7988 32.2632L37.0752 32.1008C36.3639 31.94 35.8722 31.7653 35.6001 31.5767C35.1393 31.2612 34.9089 30.768 34.9089 30.0969C34.9089 29.4846 35.1316 28.9759 35.5769 28.5708C36.0222 28.1657 36.6763 27.9631 37.5391 27.9631C38.2596 27.9631 38.8735 28.1549 39.3806 28.5383C39.8909 28.9187 40.1584 29.4722 40.1831 30.199H38.8101C38.7853 29.7877 38.606 29.4954 38.272 29.3223C38.0493 29.2078 37.7725 29.1506 37.4417 29.1506C37.0736 29.1506 36.7799 29.2249 36.5603 29.3733C36.3407 29.5217 36.231 29.7289 36.231 29.9949C36.231 30.2392 36.3392 30.4216 36.5557 30.5422C36.6948 30.6226 36.9917 30.717 37.4463 30.8252L38.6245 31.1082C39.141 31.2319 39.5306 31.3973 39.7935 31.6045C40.2017 31.9261 40.4058 32.3915 40.4058 33.0007C40.4058 33.6254 40.1661 34.1449 39.6868 34.5593C39.2105 34.9706 38.5364 35.1763 37.6643 35.1763C36.7737 35.1763 36.0732 34.9737 35.563 34.5686C35.0527 34.1604 34.7976 33.6007 34.7976 32.8894H36.1614C36.2047 33.2017 36.2897 33.4352 36.4165 33.5898C36.6484 33.8713 37.0458 34.012 37.6086 34.012ZM46.3108 29.3733H42.8828V30.9458H45.884V32.1333H42.8828V35H41.4634V28.1719H46.3108V29.3733ZM52.0303 32.0127H48.709V33.7708H52.4941V35H47.3127V28.1626H52.3271V29.3733H48.709V30.8252H52.0303V32.0127ZM56.5112 32.3188H55.0361V35H53.6399V28.1626H56.9937C57.473 28.1719 57.841 28.2306 58.0977 28.3389C58.3574 28.4471 58.577 28.6064 58.7563 28.8167C58.9048 28.9898 59.0223 29.1816 59.1089 29.3918C59.1955 29.6021 59.2388 29.8418 59.2388 30.1108C59.2388 30.4355 59.1568 30.7556 58.9929 31.071C58.829 31.3834 58.5584 31.6045 58.1812 31.7344C58.4966 31.8612 58.7192 32.0421 58.8491 32.2771C58.9821 32.509 59.0486 32.8647 59.0486 33.344V33.8032C59.0486 34.1156 59.061 34.3274 59.0857 34.4387C59.1228 34.615 59.2094 34.7449 59.3455 34.8284V35H57.7729C57.7297 34.8485 57.6987 34.7263 57.6802 34.6335C57.6431 34.4418 57.623 34.2454 57.6199 34.0444L57.6106 33.4089C57.6044 32.9729 57.524 32.6822 57.3694 32.5369C57.2179 32.3915 56.9318 32.3188 56.5112 32.3188ZM57.3787 31.0757C57.6632 30.9458 57.8054 30.6891 57.8054 30.3057C57.8054 29.8913 57.6678 29.613 57.3926 29.4707C57.238 29.3903 57.006 29.3501 56.6968 29.3501H55.0361V31.187H56.655C56.9766 31.187 57.2179 31.1499 57.3787 31.0757Z" fill="#FBF6EB"/>
</svg>
