<svg width="21" height="24" viewBox="0 0 21 24" fill="none" xmlns="http://www.w3.org/2000/svg">
<path d="M1 8.55556C1 6.68871 1 5.75529 1.34255 5.04225C1.64387 4.41505 2.12466 3.90511 2.71603 3.58553C3.38832 3.22222 4.26841 3.22222 6.02857 3.22222H14.8286C16.5887 3.22222 17.4688 3.22222 18.1411 3.58553C18.7325 3.90511 19.2133 4.41505 19.5146 5.04225C19.8571 5.75529 19.8571 6.68871 19.8571 8.55556V17.8889C19.8571 19.7557 19.8571 20.6892 19.5146 21.4022C19.2133 22.0294 18.7325 22.5393 18.1411 22.8589C17.4688 23.2222 16.5887 23.2222 14.8286 23.2222H6.02857C4.26841 23.2222 3.38832 23.2222 2.71603 22.8589C2.12466 22.5393 1.64387 22.0294 1.34255 21.4022C1 20.6892 1 19.7557 1 17.8889V8.55556Z" fill="black"/>
<path d="M19.8571 9.88889H1M14.619 1V5.44444M6.2381 1V5.44444M6.02857 23.2222H14.8286C16.5887 23.2222 17.4688 23.2222 18.1411 22.8589C18.7325 22.5393 19.2133 22.0294 19.5146 21.4022C19.8571 20.6892 19.8571 19.7557 19.8571 17.8889V8.55556C19.8571 6.68871 19.8571 5.75529 19.5146 5.04225C19.2133 4.41505 18.7325 3.90511 18.1411 3.58553C17.4688 3.22222 16.5887 3.22222 14.8286 3.22222H6.02857C4.26841 3.22222 3.38832 3.22222 2.71603 3.58553C2.12466 3.90511 1.64387 4.41505 1.34255 5.04225C1 5.75529 1 6.68871 1 8.55556V17.8889C1 19.7557 1 20.6892 1.34255 21.4022C1.64387 22.0294 2.12466 22.5393 2.71603 22.8589C3.38832 23.2222 4.26841 23.2222 6.02857 23.2222Z" stroke="white" stroke-width="1.5" stroke-linecap="round" stroke-linejoin="round"/>
</svg>
