<svg width="21" height="24" viewBox="0 0 21 24" fill="none" xmlns="http://www.w3.org/2000/svg">
<path d="M1 8.48C1 6.63183 1 5.70774 1.34515 5.00183C1.64875 4.3809 2.13318 3.87606 2.72903 3.55968C3.40642 3.2 4.29317 3.2 6.06667 3.2H14.9333C16.7068 3.2 17.5936 3.2 18.271 3.55968C18.8668 3.87606 19.3513 4.3809 19.6549 5.00183C20 5.70774 20 6.63183 20 8.48V17.72C20 19.5682 20 20.4923 19.6549 21.1982C19.3513 21.8191 18.8668 22.3239 18.271 22.6403C17.5936 23 16.7068 23 14.9333 23H6.06667C4.29317 23 3.40642 23 2.72903 22.6403C2.13318 22.3239 1.64875 21.8191 1.34515 21.1982C1 20.4923 1 19.5682 1 17.72V8.48Z" fill="black"/>
<path d="M20 9.8H1M14.7222 1V5.4M6.27778 1V5.4M6.06667 23H14.9333C16.7068 23 17.5936 23 18.271 22.6403C18.8668 22.3239 19.3513 21.8191 19.6549 21.1982C20 20.4923 20 19.5682 20 17.72V8.48C20 6.63183 20 5.70774 19.6549 5.00183C19.3513 4.3809 18.8668 3.87606 18.271 3.55968C17.5936 3.2 16.7068 3.2 14.9333 3.2H6.06667C4.29317 3.2 3.40642 3.2 2.72903 3.55968C2.13318 3.87606 1.64875 4.3809 1.34515 5.00183C1 5.70774 1 6.63183 1 8.48V17.72C1 19.5682 1 20.4923 1.34515 21.1982C1.64875 21.8191 2.13318 22.3239 2.72903 22.6403C3.40642 23 4.29317 23 6.06667 23Z" stroke="#FBF6EB" stroke-width="1.5" stroke-linecap="round" stroke-linejoin="round"/>
</svg>
