<svg width="23" height="24" viewBox="0 0 23 24" fill="none" xmlns="http://www.w3.org/2000/svg">
<path d="M21.4282 9.92673H1.42822M15.8727 1.03784V5.48229M6.98378 1.03784V5.48229M6.76156 23.2601H16.0949C17.9617 23.2601 18.8952 23.2601 19.6082 22.8968C20.2354 22.5772 20.7453 22.0672 21.0649 21.44C21.4282 20.727 21.4282 19.7936 21.4282 17.9267V8.5934C21.4282 6.72656 21.4282 5.79313 21.0649 5.0801C20.7453 4.45289 20.2354 3.94295 19.6082 3.62338C18.8952 3.26006 17.9617 3.26006 16.0949 3.26006H6.76156C4.89471 3.26006 3.96129 3.26006 3.24825 3.62338C2.62105 3.94295 2.11111 4.45289 1.79153 5.0801C1.42822 5.79313 1.42822 6.72656 1.42822 8.5934V17.9267C1.42822 19.7936 1.42822 20.727 1.79153 21.44C2.11111 22.0672 2.62105 22.5772 3.24825 22.8968C3.96129 23.2601 4.89471 23.2601 6.76156 23.2601Z" stroke="black" stroke-width="1.5" stroke-linecap="round" stroke-linejoin="round"/>
</svg>
