<svg width="23" height="22" viewBox="0 0 23 22" fill="none" xmlns="http://www.w3.org/2000/svg">
<path d="M17.2492 7.80698C17.2491 7.23829 17.0322 6.6696 16.5983 6.2357C16.1644 5.80178 15.5957 5.58483 15.0269 5.58483M15.0269 14.4737C18.7088 14.4737 21.6936 11.4889 21.6936 7.80705C21.6936 4.12515 18.7088 1.14038 15.0269 1.14038C11.345 1.14038 8.36027 4.12515 8.36027 7.80705C8.36027 8.11113 8.38063 8.41047 8.42006 8.70375C8.48491 9.18614 8.51734 9.42733 8.49551 9.57993C8.47277 9.73889 8.44383 9.82455 8.36548 9.96471C8.29027 10.0993 8.15773 10.2318 7.89264 10.4969L2.2143 16.1752C2.02213 16.3674 1.92605 16.4635 1.85734 16.5756C1.79642 16.675 1.75152 16.7834 1.7243 16.8968C1.6936 17.0247 1.6936 17.1605 1.6936 17.4323V19.3626C1.6936 19.9849 1.6936 20.296 1.81471 20.5337C1.92123 20.7428 2.09121 20.9128 2.30028 21.0193C2.53796 21.1404 2.8491 21.1404 3.47138 21.1404H6.13805V18.9182H8.36027V16.6959H10.5825L12.3371 14.9413C12.6022 14.6763 12.7347 14.5437 12.8693 14.4685C13.0094 14.3902 13.0951 14.3612 13.2541 14.3385C13.4067 14.3166 13.6478 14.3491 14.1302 14.4139C14.4235 14.4534 14.7229 14.4737 15.0269 14.4737Z" stroke="black" stroke-width="1.5" stroke-linecap="round" stroke-linejoin="round"/>
</svg>
