<svg width="21" height="22" viewBox="0 0 21 22" fill="none" xmlns="http://www.w3.org/2000/svg">
<rect width="18.8571" height="20" transform="translate(1 0.93103)" fill="white"/>
<path d="M1 3.43103C1 2.76799 1.24834 2.1321 1.69039 1.66326C2.13244 1.19442 2.73199 0.93103 3.35714 0.93103H17.5C18.1252 0.93103 18.7247 1.19442 19.1668 1.66326C19.6088 2.1321 19.8571 2.76799 19.8571 3.43103V18.431C19.8571 19.0941 19.6088 19.73 19.1668 20.1988C18.7247 20.6676 18.1252 20.931 17.5 20.931H3.35714C2.73199 20.931 2.13244 20.6676 1.69039 20.1988C1.24834 19.73 1 19.0941 1 18.431V3.43103Z" fill="black"/>
<path d="M8.07143 0.93103L12.7857 20.931Z" fill="black"/>
<path d="M10.4286 10.931L1 13.431Z" fill="black"/>
<path d="M8.07143 0.93103L12.7857 20.931M10.4286 10.931L1 13.431M1 3.43103C1 2.76799 1.24834 2.1321 1.69039 1.66326C2.13244 1.19442 2.73199 0.93103 3.35714 0.93103H17.5C18.1252 0.93103 18.7247 1.19442 19.1668 1.66326C19.6088 2.1321 19.8571 2.76799 19.8571 3.43103V18.431C19.8571 19.0941 19.6088 19.73 19.1668 20.1988C18.7247 20.6676 18.1252 20.931 17.5 20.931H3.35714C2.73199 20.931 2.13244 20.6676 1.69039 20.1988C1.24834 19.73 1 19.0941 1 18.431V3.43103Z" stroke="white" stroke-width="1.5" stroke-linecap="round" stroke-linejoin="round"/>
</svg>
