<svg width="21" height="22" viewBox="0 0 21 22" fill="none" xmlns="http://www.w3.org/2000/svg">
<path d="M1 3.5C1 2.83696 1.24834 2.20107 1.69039 1.73223C2.13244 1.26339 2.73199 1 3.35714 1H17.5C18.1252 1 18.7247 1.26339 19.1668 1.73223C19.6088 2.20107 19.8571 2.83696 19.8571 3.5V18.5C19.8571 19.163 19.6088 19.7989 19.1668 20.2678C18.7247 20.7366 18.1252 21 17.5 21H3.35714C2.73199 21 2.13244 20.7366 1.69039 20.2678C1.24834 19.7989 1 19.163 1 18.5V3.5Z" fill="black"/>
<path d="M8.07143 1L12.7857 21Z" fill="black"/>
<path d="M10.4286 11L1 13.5Z" fill="black"/>
<path d="M8.07143 1L12.7857 21M10.4286 11L1 13.5M1 3.5C1 2.83696 1.24834 2.20107 1.69039 1.73223C2.13244 1.26339 2.73199 1 3.35714 1H17.5C18.1252 1 18.7247 1.26339 19.1668 1.73223C19.6088 2.20107 19.8571 2.83696 19.8571 3.5V18.5C19.8571 19.163 19.6088 19.7989 19.1668 20.2678C18.7247 20.7366 18.1252 21 17.5 21H3.35714C2.73199 21 2.13244 20.7366 1.69039 20.2678C1.24834 19.7989 1 19.163 1 18.5V3.5Z" stroke="#FBF6EB" stroke-width="1.5" stroke-linecap="round" stroke-linejoin="round"/>
</svg>
