<svg width="23" height="22" viewBox="0 0 23 22" fill="none" xmlns="http://www.w3.org/2000/svg">
<path d="M8.92822 0.842041L13.9282 20.842M11.4282 10.842L1.42822 13.342M1.42822 3.34204C1.42822 2.679 1.69161 2.04311 2.16046 1.57427C2.6293 1.10543 3.26518 0.842041 3.92822 0.842041H18.9282C19.5913 0.842041 20.2271 1.10543 20.696 1.57427C21.1648 2.04311 21.4282 2.679 21.4282 3.34204V18.342C21.4282 19.0051 21.1648 19.641 20.696 20.1098C20.2271 20.5786 19.5913 20.842 18.9282 20.842H3.92822C3.26518 20.842 2.6293 20.5786 2.16046 20.1098C1.69161 19.641 1.42822 19.0051 1.42822 18.342V3.34204Z" stroke="#001426" stroke-width="1.5" stroke-linecap="round" stroke-linejoin="round"/>
</svg>
