<svg width="21" height="15" viewBox="0 0 21 15" fill="none" xmlns="http://www.w3.org/2000/svg">
<path d="M20.2047 1.70241L11.1407 14.3485C10.7382 14.91 9.90112 14.904 9.50681 14.3366L0.737863 1.71984C0.146618 0.869156 1.08011 -0.208776 2.00655 0.254861L9.87465 4.19248C10.1525 4.33153 10.4792 4.33353 10.7588 4.19787L18.9553 0.220191C19.8884 -0.232644 20.8089 0.859386 20.2047 1.70241Z" fill="black"/>
<path d="M20.2047 1.70241L11.1407 14.3485C10.7382 14.91 9.90112 14.904 9.50681 14.3366L0.737863 1.71984C0.146618 0.869156 1.08011 -0.208776 2.00655 0.254861L9.87465 4.19248C10.1525 4.33153 10.4792 4.33353 10.7588 4.19787L18.9553 0.220191C19.8884 -0.232644 20.8089 0.859386 20.2047 1.70241Z" fill="black"/>
<path d="M20.2047 1.70241L11.1407 14.3485C10.7382 14.91 9.90112 14.904 9.50681 14.3366L0.737863 1.71984C0.146618 0.869156 1.08011 -0.208776 2.00655 0.254861L9.87465 4.19248C10.1525 4.33153 10.4792 4.33353 10.7588 4.19787L18.9553 0.220191C19.8884 -0.232644 20.8089 0.859386 20.2047 1.70241Z" fill="black"/>
</svg>
