<svg width="23" height="23" viewBox="0 0 23 23" fill="none" xmlns="http://www.w3.org/2000/svg">
<path d="M17.7322 9.76705L13.5932 5.62807M1.6936 21.6666L5.19556 21.2775C5.62341 21.23 5.83734 21.2062 6.0373 21.1415C6.2147 21.084 6.38353 21.0029 6.53919 20.9002C6.71465 20.7845 6.86685 20.6323 7.17126 20.3279L20.8364 6.66281C21.9793 5.51987 21.9793 3.66678 20.8364 2.52384C19.6934 1.38089 17.8404 1.38089 16.6974 2.52383L3.03228 16.189C2.72788 16.4934 2.57568 16.6456 2.45997 16.821C2.35732 16.9767 2.27618 17.1455 2.21875 17.3229C2.15402 17.5229 2.13025 17.7368 2.08271 18.1647L1.6936 21.6666Z" stroke="black" stroke-width="1.5" stroke-linecap="round" stroke-linejoin="round"/>
</svg>
