<svg width="23" height="24" viewBox="0 0 23 24" fill="none" xmlns="http://www.w3.org/2000/svg">
<path d="M1.42822 4.6263C1.42822 6.46741 5.40822 7.95964 10.3171 7.95964C15.226 7.95964 19.206 6.46741 19.206 4.6263M1.42822 4.6263C1.42822 2.78519 5.40822 1.29297 10.3171 1.29297C15.226 1.29297 19.206 2.78519 19.206 4.6263M1.42822 4.6263V11.293M19.206 4.6263V11.293M1.42822 11.293C1.42822 13.1341 5.40822 14.6263 10.3171 14.6263C11.5593 14.6263 12.7427 14.5307 13.8171 14.3585M1.42822 11.293V17.9596C1.42822 19.8007 5.40822 21.293 10.3171 21.293C10.4916 21.293 10.6638 21.2907 10.8349 21.2874M14.7616 19.0707H21.4282M21.4282 19.0707L18.0949 15.7374M21.4282 19.0707L18.0949 22.4041" stroke="black" stroke-width="1.5" stroke-linecap="round" stroke-linejoin="round"/>
</svg>
