<svg width="23" height="25" viewBox="0 0 23 25" fill="none" xmlns="http://www.w3.org/2000/svg">
<path d="M7.67822 10.146L10.1782 12.646L15.8032 7.021M21.4282 23.271V6.771C21.4282 4.6708 21.4282 3.6207 21.0195 2.81853C20.66 2.11292 20.0863 1.53925 19.3807 1.17972C18.5785 0.770996 17.5284 0.770996 15.4282 0.770996H7.42822C5.32803 0.770996 4.27793 0.770996 3.47576 1.17972C2.77015 1.53925 2.19647 2.11292 1.83695 2.81853C1.42822 3.6207 1.42822 4.6708 1.42822 6.771V23.271L4.86572 20.771L7.99072 23.271L11.4282 20.771L14.8657 23.271L17.9907 20.771L21.4282 23.271Z" stroke="black" stroke-width="1.5" stroke-linecap="round" stroke-linejoin="round"/>
</svg>
