<svg width="23" height="22" viewBox="0 0 23 22" fill="none" xmlns="http://www.w3.org/2000/svg">
<path d="M11.4282 20.782C16.9511 20.782 21.4282 16.3048 21.4282 10.782C21.4282 5.25913 16.9511 0.781982 11.4282 0.781982C5.90538 0.781982 1.42822 5.25913 1.42822 10.782C1.42822 16.3048 5.90538 20.782 11.4282 20.782Z" stroke="black" stroke-width="1.5" stroke-linecap="round" stroke-linejoin="round"/>
<path d="M11.4282 16.782C14.7419 16.782 17.4282 14.0957 17.4282 10.782C17.4282 7.46827 14.7419 4.78198 11.4282 4.78198C8.11451 4.78198 5.42822 7.46827 5.42822 10.782C5.42822 14.0957 8.11451 16.782 11.4282 16.782Z" stroke="black" stroke-width="1.5" stroke-linecap="round" stroke-linejoin="round"/>
<path d="M11.4282 12.782C12.5328 12.782 13.4282 11.8866 13.4282 10.782C13.4282 9.67741 12.5328 8.78198 11.4282 8.78198C10.3237 8.78198 9.42822 9.67741 9.42822 10.782C9.42822 11.8866 10.3237 12.782 11.4282 12.782Z" stroke="black" stroke-width="1.5" stroke-linecap="round" stroke-linejoin="round"/>
</svg>
