<svg width="49" height="49" viewBox="0 0 49 49" fill="none" xmlns="http://www.w3.org/2000/svg">
<g clip-path="url(#clip0_7905_967)">
<path d="M16.5237 12.1968C17.5733 12.3111 18.2869 12.5884 20.0156 13.6022C20.5834 13.9423 21.1832 14.1943 21.3352 14.1568C21.4619 14.1255 21.6196 14.2199 21.6569 14.3708C21.7066 14.572 22.3461 14.4407 23.9109 13.9207C28.5801 12.367 29.9279 12.2742 31.7451 13.3195C32.5212 13.7415 33.208 14.3456 33.2764 14.6222C33.3509 14.924 33.5521 15.1945 33.6974 15.2387C33.8681 15.2765 34.1558 16.006 34.3608 16.8359C34.5658 17.6658 34.626 18.3446 34.474 18.3822C34.3474 18.4135 34.3201 18.8471 34.4382 19.325C34.5562 19.8028 34.5543 20.2302 34.4023 20.2677C34.2756 20.299 34.2049 20.5566 34.2732 20.8333C34.3416 21.1099 34.2962 21.3613 34.1442 21.3988C34.0175 21.4301 33.9468 21.6877 34.0151 21.9644C34.0834 22.241 34.038 22.4924 33.886 22.5299C33.7594 22.5612 33.67 22.7434 33.7073 22.8943C33.9185 23.7493 29.7372 30.7593 28.9013 30.9658C28.7239 31.0096 28.4759 31.311 28.3416 31.6377C28.2072 31.9644 27.9085 32.2784 27.6552 32.341C27.4019 32.4035 27.2241 32.5542 27.2614 32.7051C27.2924 32.8308 27.0955 33.0129 26.8169 33.0817C26.5382 33.1506 26.3351 33.3075 26.3724 33.4584C26.4034 33.5841 26.1558 33.7787 25.8265 33.8601C25.4719 33.9477 25.1421 34.1359 25.1034 34.3055C25.0584 34.45 24.7349 34.6634 24.4055 34.7448C24.0762 34.8261 23.7464 35.0143 23.7077 35.184C23.6628 35.3285 23.2379 35.5669 22.8135 35.6984C22.3575 35.8111 21.7997 36.0556 21.5459 36.225C21.2983 36.4196 20.8362 36.5071 20.5202 36.425C19.5787 36.204 17.6745 34.8066 16.7244 33.6805C16.2527 33.0766 15.7614 32.611 15.6347 32.6422C15.5334 32.6673 15.3886 32.5163 15.3389 32.3151C15.2892 32.1139 15.0946 31.7617 14.9058 31.5415C13.8611 30.3587 12.7939 28.5411 12.5578 27.5855C12.4459 27.1328 12.2576 26.8058 12.1056 26.8433C11.9537 26.8809 11.5293 25.5982 11.0136 23.5109C10.498 21.4236 10.2762 20.0908 10.4282 20.0533C10.5802 20.0157 10.6194 19.7392 10.5448 19.4374C10.4082 18.8842 10.5172 17.1495 10.7155 16.6469C12.0525 13.3548 13.8553 11.9488 16.5237 12.1968Z" fill="#FF8E63"/>
<path d="M12.6216 10.4067C12.0514 10.5989 11.6263 10.858 11.6622 11.0033C11.6921 11.1243 11.4977 11.2751 11.2309 11.341C10.964 11.4069 10.7696 11.5577 10.8055 11.7029C10.8354 11.8239 10.744 11.9749 10.6227 12.0049C10.2831 12.0888 8.71106 14.6859 8.79478 15.0247C8.82468 15.1458 8.7818 15.2848 8.66051 15.3147C8.56347 15.3387 8.43484 15.7557 8.36669 16.2092C8.28025 16.6928 8.20544 17.3277 8.14993 17.6239C7.65491 20.7255 8.30298 24.4948 9.9636 28.0911C10.2886 28.7813 10.6976 29.7076 10.8963 30.0951C11.0767 30.5129 11.3119 30.84 11.4332 30.81C11.5545 30.7801 11.7293 31.0708 11.825 31.4581C11.9266 31.8695 12.1436 32.2269 12.2828 32.2695C12.4463 32.3062 12.6151 32.5727 12.6809 32.8389C12.7407 33.081 12.9158 33.2689 13.0371 33.2389C13.1826 33.203 13.3335 33.3968 13.3993 33.6631C13.4651 33.9294 13.6402 34.1172 13.7615 34.0873C13.907 34.0513 14.0579 34.2452 14.1237 34.5115C14.1894 34.7777 14.3645 34.9656 14.4858 34.9357C14.6314 34.8997 14.7822 35.0936 14.848 35.3598C14.9138 35.6261 15.0889 35.814 15.2102 35.784C15.3558 35.7481 15.4947 35.8935 15.5425 36.0872C15.5903 36.2808 15.7292 36.4263 15.8263 36.4023C15.9233 36.3783 16.2679 36.6271 16.6062 36.9545C16.9202 37.2878 17.5608 37.7973 18.0264 38.1189C18.5102 38.4103 19.1146 38.8774 19.3804 39.1199C20.1719 39.8233 20.8794 40.2906 21.0735 40.2426C21.1705 40.2186 21.4852 40.3464 21.7633 40.5345C22.6339 41.1413 23.3972 41.2095 25.0468 40.802C26.6964 40.3945 28.7236 39.4314 28.6399 39.0925C28.6159 38.9957 28.9316 38.815 29.3198 38.7191C29.7322 38.6172 30.0177 38.4182 29.9878 38.2972C29.9519 38.152 30.1463 38.0012 30.4131 37.9353C30.68 37.8694 30.8684 37.6944 30.8385 37.5734C30.8026 37.4281 31.0456 37.2654 31.3852 37.1815C31.7248 37.0976 31.9618 36.9106 31.9319 36.7896C31.896 36.6444 32.0904 36.4936 32.3572 36.4277C32.6241 36.3618 32.8125 36.1868 32.7826 36.0658C32.7467 35.9206 32.8198 35.7998 32.9654 35.7638C33.1837 35.7099 33.6218 35.1907 34.2489 34.291C34.3586 34.1098 34.7481 33.6026 35.1312 33.1741C36.7979 31.2728 39.5095 26.7247 39.8658 25.2498C39.9702 24.8388 40.141 24.4884 40.2623 24.4584C40.3594 24.4345 40.4026 24.1927 40.3368 23.9264C40.271 23.6601 40.3385 23.4123 40.4598 23.3823C40.6053 23.3464 40.6486 23.1046 40.5888 22.8625C40.523 22.5962 40.5725 22.2758 40.6759 22.1732C40.8035 22.0647 40.8288 21.7502 40.763 21.484C40.7032 21.2419 40.7707 20.9941 40.892 20.9641C41.0375 20.9282 40.8774 19.8633 40.4768 18.2416C40.0761 16.6198 39.7219 15.6029 39.5764 15.6389C39.4551 15.6688 39.2381 15.3115 39.1245 14.8516C39.0109 14.3917 38.8182 14.0284 38.6726 14.0643C38.5513 14.0943 38.3882 13.9548 38.3403 13.7612C38.1789 13.1076 34.3027 10.6494 32.9645 10.3379C32.5285 10.2401 32.1108 10.1122 32.0201 10.0576C31.6875 9.85722 29.906 9.83503 27.9237 10.0422C26.2386 10.2017 25.5108 10.3815 24.2607 10.9472L22.7131 11.6634L21.7212 11.0866C21.1828 10.7829 20.6382 10.5579 20.5169 10.5879C20.3956 10.6179 20.0264 10.4779 19.6695 10.2836C19.3127 10.0892 18.8707 9.96726 18.7009 10.0092C18.5311 10.0512 18.3556 9.96609 18.3257 9.84506C18.2898 9.69983 17.9991 9.66893 17.6837 9.74684C17.3683 9.82475 17.0291 9.80583 16.9506 9.69679C16.7938 9.47871 13.9928 9.91386 12.6216 10.4067ZM16.6085 12.3753C17.6141 12.4864 18.2979 12.7541 19.9551 13.7316C20.4994 14.0594 21.0743 14.3026 21.2198 14.2667C21.3411 14.2367 21.4923 14.3278 21.5282 14.473C21.576 14.6667 22.1885 14.541 23.6869 14.0425C28.1578 12.5527 29.4489 12.4649 31.1908 13.4728C31.9348 13.8797 32.5934 14.4618 32.6591 14.7281C32.7309 15.0185 32.924 15.2791 33.0632 15.3217C33.2267 15.3584 33.5031 16.0606 33.7004 16.8593C33.8978 17.6581 33.9562 18.3115 33.8107 18.3474C33.6894 18.3774 33.6638 18.7946 33.7774 19.2545C33.891 19.7144 33.8896 20.1257 33.7441 20.1617C33.6228 20.1916 33.5553 20.4394 33.6211 20.7057C33.6869 20.972 33.6437 21.2138 33.4981 21.2498C33.3768 21.2797 33.3093 21.5275 33.3751 21.7938C33.4409 22.0601 33.3977 22.3019 33.2521 22.3378C33.1308 22.3678 33.0454 22.543 33.0813 22.6882C33.2846 23.5112 29.2871 30.2518 28.4866 30.4495C28.3168 30.4915 28.0795 30.7812 27.9512 31.0955C27.8229 31.4097 27.5371 31.7114 27.2945 31.7713C27.0519 31.8313 26.8818 31.976 26.9177 32.1213C26.9476 32.2423 26.7591 32.4173 26.4923 32.4832C26.2254 32.5491 26.031 32.6999 26.0669 32.8451C26.0968 32.9661 25.8599 33.1531 25.5445 33.231C25.2049 33.3149 24.8892 33.4956 24.8523 33.6588C24.8094 33.7978 24.4997 34.0028 24.1843 34.0807C23.8689 34.1586 23.5532 34.3393 23.5163 34.5025C23.4734 34.6415 23.0667 34.8704 22.6603 34.9965C22.2236 35.1044 21.6896 35.3391 21.4466 35.5018C21.2097 35.6888 20.7671 35.7724 20.4643 35.6931C19.5621 35.4794 17.7365 34.1326 16.8251 33.0479C16.3725 32.4663 15.9013 32.0177 15.78 32.0476C15.683 32.0716 15.5441 31.9261 15.4963 31.7325C15.4484 31.5388 15.2617 31.1997 15.0806 30.9876C14.0784 29.8483 13.0541 28.0981 12.8268 27.1783C12.7192 26.7426 12.5384 26.4277 12.3929 26.4637C12.2473 26.4996 11.8393 25.2649 11.343 23.2558C10.8467 21.2468 10.6328 19.9641 10.7783 19.9281C10.9239 19.8922 10.9611 19.6262 10.8894 19.3357C10.7578 18.8032 10.8603 17.1341 11.0497 16.6507C12.3267 13.4845 14.0521 12.1336 16.6085 12.3753Z" fill="black"/>
</g>
<defs>
<clipPath id="clip0_7905_967">
<rect width="40" height="40" fill="white" transform="translate(0.15918 9.59335) rotate(-13.8767)"/>
</clipPath>
</defs>
</svg>
