<svg width="28" height="30" viewBox="0 0 28 30" fill="none" xmlns="http://www.w3.org/2000/svg">
<path d="M26.5762 12.5039H1.57617M19.6317 1.39282V6.94838M8.52062 1.39282V6.94838M9.9095 20.8373L12.6873 23.615L18.9373 17.365M8.24284 29.1706H19.9095C22.2431 29.1706 23.4098 29.1706 24.3011 28.7165C25.0851 28.317 25.7226 27.6796 26.122 26.8956C26.5762 26.0043 26.5762 24.8375 26.5762 22.5039V10.8373C26.5762 8.50371 26.5762 7.33694 26.122 6.44564C25.7226 5.66163 25.0851 5.02421 24.3011 4.62474C23.4098 4.1706 22.2431 4.1706 19.9095 4.1706H8.24284C5.90929 4.1706 4.74251 4.1706 3.85121 4.62474C3.0672 5.02421 2.42978 5.66163 2.03031 6.44564C1.57617 7.33694 1.57617 8.50371 1.57617 10.8373V22.5039C1.57617 24.8375 1.57617 26.0043 2.03031 26.8956C2.42978 27.6796 3.0672 28.317 3.85121 28.7165C4.74251 29.1706 5.90929 29.1706 8.24284 29.1706Z" stroke="black" stroke-width="1.5" stroke-linecap="round" stroke-linejoin="round"/>
</svg>
