<svg width="23" height="21" viewBox="0 0 23 21" fill="none" xmlns="http://www.w3.org/2000/svg">
<path d="M13.9158 6.04991V3.82769C13.9158 3.23832 13.6817 2.67309 13.265 2.25634C12.8482 1.83959 12.283 1.60547 11.6936 1.60547H3.91583C3.32646 1.60547 2.76122 1.83959 2.34448 2.25634C1.92773 2.67309 1.6936 3.23832 1.6936 3.82769V17.161C1.6936 17.7504 1.92773 18.3156 2.34448 18.7324C2.76122 19.1491 3.32646 19.3832 3.91583 19.3832H11.6936C12.283 19.3832 12.8482 19.1491 13.265 18.7324C13.6817 18.3156 13.9158 17.7504 13.9158 17.161V14.9388M8.36027 10.4944H21.6936M21.6936 10.4944L18.3603 7.16102M21.6936 10.4944L18.3603 13.8277" stroke="#B01212" stroke-width="1.5" stroke-linecap="round" stroke-linejoin="round"/>
</svg>
