<svg width="22" height="23" viewBox="0 0 22 23" fill="none" xmlns="http://www.w3.org/2000/svg">
<path d="M11.0008 16.0735C12.7366 16.0735 14.1437 14.5811 14.1437 12.7402C14.1437 10.8992 12.7366 9.40683 11.0008 9.40683C9.26509 9.40683 7.85798 10.8992 7.85798 12.7402C7.85798 14.5811 9.26509 16.0735 11.0008 16.0735Z" fill="black"/>
<path d="M1.57227 10.0347C1.57227 9.39651 1.57227 9.07742 1.64982 8.78357C1.71851 8.52327 1.83141 8.27845 1.98296 8.06113C2.15405 7.8158 2.39153 7.6199 2.86648 7.2281L9.97176 1.36685C10.3398 1.06323 10.5238 0.911424 10.727 0.85307C10.9063 0.801581 11.0953 0.801581 11.2746 0.85307C11.4778 0.911424 11.6619 1.06323 12.0299 1.36685L19.1352 7.2281C19.6101 7.6199 19.8476 7.8158 20.0187 8.06113C20.1703 8.27845 20.2832 8.52327 20.3519 8.78357C20.4294 9.07742 20.4294 9.39651 20.4294 10.0347V18.0735C20.4294 19.3181 20.4294 19.9403 20.201 20.4157C20.0002 20.8338 19.6796 21.1738 19.2854 21.3868C18.8372 21.6291 18.2505 21.6291 17.077 21.6291H4.92465C3.7512 21.6291 3.16448 21.6291 2.71629 21.3868C2.32204 21.1738 2.00151 20.8338 1.80063 20.4157C1.57227 19.9403 1.57227 19.3181 1.57227 18.0735V10.0347Z" fill="black"/>
<path d="M11.0008 16.0735C12.7366 16.0735 14.1437 14.5811 14.1437 12.7402C14.1437 10.8992 12.7366 9.40683 11.0008 9.40683C9.26509 9.40683 7.85798 10.8992 7.85798 12.7402C7.85798 14.5811 9.26509 16.0735 11.0008 16.0735Z" stroke="black" stroke-width="1.5" stroke-linecap="round" stroke-linejoin="round"/>
<path d="M1.57227 10.0347C1.57227 9.39651 1.57227 9.07742 1.64982 8.78357C1.71851 8.52327 1.83141 8.27845 1.98296 8.06113C2.15405 7.8158 2.39153 7.6199 2.86648 7.2281L9.97176 1.36685C10.3398 1.06323 10.5238 0.911424 10.727 0.85307C10.9063 0.801581 11.0953 0.801581 11.2746 0.85307C11.4778 0.911424 11.6619 1.06323 12.0299 1.36685L19.1352 7.2281C19.6101 7.6199 19.8476 7.8158 20.0187 8.06113C20.1703 8.27845 20.2832 8.52327 20.3519 8.78357C20.4294 9.07742 20.4294 9.39651 20.4294 10.0347V18.0735C20.4294 19.3181 20.4294 19.9403 20.201 20.4157C20.0002 20.8338 19.6796 21.1738 19.2854 21.3868C18.8372 21.6291 18.2505 21.6291 17.077 21.6291H4.92465C3.7512 21.6291 3.16448 21.6291 2.71629 21.3868C2.32204 21.1738 2.00151 20.8338 1.80063 20.4157C1.57227 19.9403 1.57227 19.3181 1.57227 18.0735V10.0347Z" stroke="black" stroke-width="1.5" stroke-linecap="round" stroke-linejoin="round"/>
<circle cx="10.999" cy="12.4082" r="3.00879" fill="white"/>
</svg>
