<svg width="30" height="30" viewBox="0 0 30 30" fill="none" xmlns="http://www.w3.org/2000/svg">
<path d="M11.5265 12.2896C12.1523 13.5932 13.0055 14.8149 14.0861 15.8954C15.1666 16.976 16.3884 17.8292 17.6919 18.4551C17.8041 18.5089 17.8601 18.5358 17.9311 18.5565C18.1832 18.63 18.4928 18.5772 18.7063 18.4243C18.7663 18.3813 18.8177 18.3299 18.9205 18.2271C19.2349 17.9127 19.3921 17.7555 19.5502 17.6527C20.1463 17.2652 20.9148 17.2652 21.5109 17.6527C21.6689 17.7555 21.8261 17.9127 22.1405 18.2271L22.3158 18.4023C22.7937 18.8802 23.0326 19.1192 23.1624 19.3758C23.4206 19.8862 23.4206 20.4889 23.1624 20.9993C23.0326 21.2559 22.7937 21.4949 22.3158 21.9728L22.174 22.1145C21.6977 22.5908 21.4596 22.8289 21.1359 23.0108C20.7766 23.2126 20.2186 23.3577 19.8066 23.3565C19.4352 23.3554 19.1814 23.2834 18.6738 23.1393C15.946 22.3651 13.3721 20.9043 11.2247 18.7569C9.07726 16.6095 7.61644 14.0355 6.84221 11.3077C6.69815 10.8001 6.62611 10.5463 6.62501 10.175C6.62378 9.7629 6.76889 9.20492 6.9707 8.84567C7.15257 8.52191 7.3907 8.28377 7.86697 7.80751L8.00872 7.66575C8.48662 7.18785 8.72557 6.9489 8.9822 6.8191C9.49259 6.56095 10.0953 6.56095 10.6057 6.8191C10.8623 6.9489 11.1013 7.18785 11.5792 7.66575L11.7544 7.84099C12.0688 8.15538 12.226 8.31257 12.3288 8.47064C12.7163 9.06674 12.7163 9.83523 12.3288 10.4313C12.226 10.5894 12.0688 10.7466 11.7544 11.061C11.6516 11.1638 11.6002 11.2152 11.5572 11.2753C11.4043 11.4888 11.3515 11.7983 11.425 12.0505C11.4457 12.1214 11.4726 12.1775 11.5265 12.2896Z" fill="black"/>
</svg>
