<svg width="460" height="460" viewBox="0 0 460 460" fill="none" xmlns="http://www.w3.org/2000/svg">
<rect x="0.202148" width="459.291" height="459.291" rx="229.645" fill="#FBF6EB"/>
<path d="M164.475 207.602C163.844 207.816 163.498 207.934 163.498 207.934L166.437 194.301L149.83 213.029C144.004 215.25 138.022 217.597 132.029 220.04C130.365 220.718 131.679 207.375 131.679 207.375L122.783 223.886C122.783 223.886 94.4904 239.012 81.2939 247.316C77.1042 249.952 83.2992 186.543 198.317 158.998C198.317 158.998 178.461 156.577 171.25 155.846C168.928 155.611 175.05 147.682 175.05 147.682L151.681 154.061C146.436 153.64 141.144 153.267 135.927 152.967L139.201 142.586C136.569 142.483 119.784 152.289 117.889 152.255C101.905 151.966 86.2641 152.811 79.3887 155.724L87.815 148.59L83.2992 149.116L83.8278 147.248C84.3989 146.881 84.9691 146.514 85.5391 146.148C109.785 130.556 133.603 115.238 200.556 127.228C190.479 117.128 174.627 115.909 161.432 106.936L172.34 99.6965L152.905 101.552C140.982 94.6317 118.058 91.2077 118.058 91.2077C118.058 91.2077 188.313 62.7977 229.506 118.022C229.506 118.022 243.407 83.2514 328.087 81.2061C324.577 84.2823 315.844 88.3648 315.844 88.3648C315.844 88.3648 318.007 90.3916 316.865 91.4329C312.698 95.2318 308.703 97.569 303.165 101.118C300.541 102.682 288.217 101.557 288.217 101.557C288.217 101.557 294.005 106.076 292.72 107.395C282.176 112.909 259.731 128.25 259.731 128.25C296.46 124.159 358.459 128.822 380.307 166.101C378.883 165.605 376.808 164.795 374.605 163.936C371.317 162.654 365.705 159.216 363.597 158.588C362.228 158.18 361.891 158.818 361.55 159.464C361.213 160.102 360.873 160.746 359.533 160.4C336.096 155.934 320.403 153.16 313.328 153.723C306.253 154.286 299.667 150.183 299.667 150.183L300.439 155.202C275.447 158.518 266.104 155.27 252.926 159.219C302.054 166.502 330.085 185.637 336.824 211.541C341.958 226.025 339.308 243.335 332.195 256.629C327.521 265.534 320.149 272.878 310.081 278.662C300.103 284.353 289.406 287.199 277.989 287.199C272.856 287.199 268.37 286.447 263.436 285.271C261.504 279.747 257.349 272.465 257.349 272.465C257.349 272.465 263.201 273.612 264.909 273.98C266.707 274.255 268.325 274.393 269.764 274.393C278.483 274.393 285.675 271.271 291.338 265.029C297.002 258.694 299.833 249.514 299.833 237.488C299.833 233.502 299.535 229.83 298.94 226.471C297.655 219.231 294.987 213.448 290.934 209.12C285.001 202.786 276.731 199.619 266.123 199.619C261.089 199.619 255.471 200.215 249.268 201.409C248.818 207.101 248.549 215.455 248.459 226.471L248.054 253.462V305.652C248.054 318.504 248.234 331.816 248.594 345.586C248.863 353.573 249.358 358.622 250.077 360.734C250.436 361.652 251.021 362.478 251.83 363.213C252.729 363.855 254.302 364.36 256.549 364.727L274.753 365.967V378.085C251.74 377.534 234.435 377.259 222.839 377.259C210.074 377.259 197.893 377.534 186.297 378.085V365.967C196.275 365.783 202.568 365.003 205.175 363.626C205.984 363.167 206.613 362.478 207.062 361.56C207.692 360.275 208.186 356.924 208.546 351.508C209.535 336.819 210.029 320.478 210.029 302.485V253.875L209.49 227.986C209.31 216.878 209.085 209.947 208.815 207.193C208.636 204.438 208.231 199.409 207.602 198.215C204.21 193.801 187.925 199.621 175.934 203.905C170.974 205.678 166.748 207.188 164.475 207.602Z" fill="black"/>
</svg>
