<svg width="320" height="316" viewBox="0 0 320 316" fill="none" xmlns="http://www.w3.org/2000/svg">
<path d="M90.482 134.411C89.8109 134.639 89.4427 134.765 89.4427 134.765L92.5679 120.266L74.9077 140.183C68.7125 142.544 62.3518 145.039 55.9788 147.637C54.2086 148.359 55.6061 134.169 55.6061 134.169L46.1457 151.728C46.1457 151.728 16.0594 167.813 2.02605 176.643C-2.42933 179.447 4.15853 112.016 126.47 82.7248C126.47 82.7248 105.355 80.1499 97.6862 79.3736C95.2177 79.1237 101.727 70.6912 101.727 70.6912L76.8766 77.4753C71.2989 77.0277 65.6714 76.6304 60.124 76.3115L63.6048 65.2728C60.8058 65.1627 42.9566 75.5907 40.9412 75.5543C23.9445 75.2472 7.31145 76.1453 0 79.2435L8.96063 71.657L4.15852 72.2159L4.72066 70.2294C5.32791 69.8396 5.93432 69.4497 6.54046 69.0599C32.3234 52.479 57.6527 36.1898 128.851 48.9404C118.135 38.1996 101.278 36.9033 87.2455 27.3616L98.8455 19.663L78.1781 21.6367C65.4993 14.277 41.1217 10.6359 41.1217 10.6359C41.1217 10.6359 115.832 -19.5756 159.636 39.151C159.636 39.151 174.419 2.17507 264.469 0C260.736 3.2713 251.45 7.61275 251.45 7.61275C251.45 7.61275 253.749 9.76803 252.535 10.8754C248.105 14.9151 243.855 17.4006 237.966 21.1749C235.176 22.8383 222.07 21.6417 222.07 21.6417C222.07 21.6417 228.226 26.4472 226.86 27.85C215.647 33.7136 191.778 50.0266 191.778 50.0266C230.836 45.6765 296.767 50.635 320 90.2788C318.486 89.7504 316.279 88.8898 313.937 87.9765C310.44 86.6129 304.472 82.9568 302.231 82.2889C300.775 81.855 300.417 82.5339 300.054 83.2208C299.696 83.8986 299.334 84.5843 297.909 84.2158C272.985 79.4666 256.297 76.5169 248.774 77.1154C241.251 77.714 234.247 73.3508 234.247 73.3508L235.068 78.6885C208.491 82.2146 198.556 78.7601 184.542 82.9595C236.786 90.7051 266.594 111.053 273.76 138.6C279.22 154.002 276.401 172.41 268.838 186.547C263.867 196.016 256.028 203.826 245.322 209.977C234.711 216.03 223.335 219.056 211.194 219.056C205.736 219.056 200.965 218.256 195.718 217.006C193.664 211.131 189.245 203.387 189.245 203.387C189.245 203.387 195.469 204.607 197.285 204.998C199.197 205.291 200.918 205.437 202.447 205.437C211.72 205.437 219.368 202.118 225.39 195.479C231.413 188.743 234.424 178.981 234.424 166.192C234.424 161.954 234.107 158.049 233.473 154.477C232.108 146.778 229.27 140.627 224.96 136.026C218.651 129.29 209.856 125.922 198.576 125.922C193.222 125.922 187.248 126.556 180.652 127.825C180.174 133.878 179.887 142.762 179.791 154.477L179.361 183.179V238.679C179.361 252.346 179.552 266.502 179.935 281.145C180.222 289.639 180.747 295.008 181.512 297.254C181.894 298.23 182.516 299.108 183.376 299.889C184.332 300.573 186.005 301.11 188.395 301.5L207.753 302.818V315.705C183.281 315.119 164.879 314.826 152.547 314.826C138.972 314.826 126.019 315.119 113.688 315.705V302.818C124.299 302.623 130.99 301.793 133.762 300.329C134.623 299.841 135.292 299.108 135.77 298.132C136.439 296.765 136.965 293.202 137.347 287.442C138.399 271.822 138.925 254.445 138.925 235.31V183.618L138.351 156.088C138.16 144.275 137.921 136.904 137.634 133.976C137.443 131.047 137.013 125.698 136.344 124.429C132.736 119.735 115.419 125.924 102.668 130.48C97.3928 132.365 92.8994 133.971 90.482 134.411Z" fill="black"/>
</svg>
