<svg width="1248" height="274" viewBox="0 0 1248 274" fill="none" xmlns="http://www.w3.org/2000/svg">
<path d="M137.475 58.3499V52.9444C138.467 52.9444 141.916 53.0323 147.823 53.2081C150.712 53.296 154.808 53.3399 160.112 53.3399C164.639 53.3399 168.52 53.252 171.753 53.0763C177.1 52.8565 181.52 52.7466 185.012 52.7466C191.781 52.7466 196.848 53.252 200.211 54.2628C203.574 55.2297 206.441 57.2732 208.813 60.3935C211.184 63.5137 212.37 67.3152 212.37 71.7978C212.37 77.1154 210.753 81.9496 207.519 86.3004C204.286 90.6512 199.305 94.101 192.579 96.65C193.657 98.6276 194.886 100.649 196.266 102.715C197.645 104.78 198.443 106.033 198.659 106.472C198.917 106.912 199.176 107.329 199.435 107.725L209.46 123.084C212.133 127.171 213.577 129.369 213.793 129.676C217.027 134.071 219.01 136.664 219.743 137.455C220.476 138.246 221.188 138.795 221.877 139.103C222.567 139.411 223.925 139.586 225.952 139.63V145.102C219.312 144.926 214.504 144.838 211.529 144.838C208.08 144.838 204.652 144.926 201.246 145.102C201.03 144.135 200.513 142.882 199.693 141.344L185.853 118.074C181.886 111.394 178.523 106.143 175.763 102.319C174.384 100.385 173.047 98.9352 171.753 97.9684L172.465 95.793C177.639 95.9688 181.541 95.4414 184.171 94.2109C186.801 92.9364 189.022 90.6951 190.833 87.487C192.644 84.2349 193.549 80.6092 193.549 76.61C193.549 72.5669 192.601 69.2049 190.704 66.5241C188.806 63.8433 186.456 61.9756 183.654 60.9208C181.843 60.2616 178.609 59.932 173.952 59.932C171.883 59.932 169.835 60.1078 167.808 60.4594C167.679 62.0415 167.549 65.6012 167.42 71.1386C167.161 83.5757 167.032 91.8817 167.032 96.0567C167.032 102.649 167.097 109.636 167.226 117.02C167.399 126.073 167.528 131.214 167.614 132.445C167.744 134.906 167.981 136.51 168.326 137.257C168.498 137.609 168.778 137.938 169.166 138.246C169.554 138.51 170.18 138.729 171.042 138.905C171.904 139.081 174.405 139.213 178.544 139.301V145.102C171.171 144.838 163.712 144.706 156.166 144.706C149.44 144.706 143.21 144.838 137.475 145.102V139.301C142.39 139.125 145.301 138.883 146.206 138.576C146.724 138.444 147.09 138.224 147.306 137.916C147.565 137.609 147.759 136.994 147.888 136.071C148.19 134.357 148.405 131.764 148.535 128.292L149.052 109.043V84.5864L148.793 70.6771C148.707 65.1837 148.448 61.8877 148.017 60.789C147.802 60.3056 147.478 59.932 147.047 59.6683C146.012 59.141 142.822 58.7015 137.475 58.3499Z" fill="black"/>
<path d="M283.183 52.8785V58.6795C278.828 58.8114 276.241 58.9872 275.421 59.2069C274.602 59.3827 274.02 59.6244 273.675 59.932C273.33 60.1957 273.093 60.5473 272.964 60.9868C272.662 61.7339 272.446 63.1622 272.317 65.2716C272.231 66.4142 272.166 68.5677 272.123 71.7319C271.95 82.5429 271.864 88.3659 271.864 89.2009V115.767L272.058 127.831C272.058 132.357 272.274 135.302 272.705 136.664C272.878 137.279 273.158 137.763 273.546 138.114C273.977 138.422 274.624 138.686 275.486 138.905C276.392 139.081 278.957 139.213 283.183 139.301V145.102C276.154 144.838 268.652 144.706 260.675 144.706C253.733 144.706 247.546 144.838 242.113 145.102V139.301C246.597 139.125 249.184 138.971 249.874 138.839C250.78 138.664 251.383 138.422 251.685 138.114C252.03 137.807 252.246 137.455 252.332 137.059C252.461 136.532 252.634 134.467 252.849 130.863C253.194 125.589 253.367 120.711 253.367 116.228V88.6735C253.367 79.928 253.324 74.3028 253.238 71.7978C253.022 66.2165 252.763 62.7227 252.461 61.3164C252.332 60.7451 252.116 60.3056 251.815 59.9979C251.556 59.6903 251.039 59.4486 250.262 59.2728C249.529 59.0531 246.813 58.8553 242.113 58.6795V52.8785C247.546 53.1422 253.777 53.274 260.805 53.274C268.695 53.274 276.154 53.1422 283.183 52.8785Z" fill="black"/>
<path d="M343.453 145.563C339.788 136.334 336.274 127.567 332.911 119.261L323.727 96.9137C316.526 79.3787 312.085 68.9412 310.403 65.6012C308.765 62.2173 307.515 60.2836 306.652 59.8002C305.359 59.097 302.685 58.7015 298.632 58.6136V52.8785C308.981 53.1861 315.276 53.3399 317.518 53.3399L340.736 52.8785V58.6136C337.115 58.6576 334.485 58.8773 332.846 59.2728C331.897 59.4926 331.229 59.8222 330.841 60.2616C330.496 60.6572 330.324 61.1845 330.324 61.8437C330.324 63.1622 331.747 67.3371 334.592 74.3687C336.231 78.4119 337.093 80.6092 337.179 80.9608C337.309 81.2684 337.46 81.664 337.632 82.1474L353.995 122.821L368.353 86.5641C368.698 85.7291 370.229 81.5761 372.945 74.105C374.885 68.8313 376.071 65.2936 376.502 63.4918C376.589 62.9644 376.632 62.437 376.632 61.9097C376.632 61.1625 376.502 60.6132 376.244 60.2616C376.028 59.8661 375.726 59.5804 375.338 59.4047C375.036 59.2728 374.26 59.1629 373.01 59.0751C370.207 58.8114 367.836 58.6576 365.896 58.6136V52.8785L382.323 53.274L396.293 52.8785V58.6136C392.111 59.0091 389.675 59.4706 388.985 59.9979C387.821 60.9208 385.385 65.9089 381.677 74.962L377.084 85.9049L368.353 107.131C360.937 125.238 355.914 138.048 353.284 145.563H343.453Z" fill="black"/>
<path d="M392.534 145.102V139.63C396.027 139.367 398.096 139.147 398.743 138.971C399.433 138.751 400.015 138.444 400.489 138.048C400.964 137.609 401.438 136.95 401.912 136.071C402.43 135.148 403.917 131.786 406.375 125.985C407.496 123.26 409.652 117.877 412.843 109.834L429.723 67.3811L435.415 52.417H444.599L473.509 121.238L477.519 130.27L480.106 136.334C480.537 137.125 480.947 137.697 481.335 138.048C481.723 138.4 482.154 138.664 482.628 138.839C483.146 139.015 484.417 139.169 486.444 139.301C487.091 139.389 488.039 139.499 489.29 139.63V145.102L471.31 144.706L448.609 145.102V139.63C453.826 139.411 456.758 139.125 457.404 138.773C458.094 138.378 458.439 137.741 458.439 136.862C458.439 135.763 457.943 133.961 456.952 131.456L451.39 116.954H418.146L415.3 124.864C413.144 130.929 412.066 134.708 412.066 136.203C412.066 137.257 412.411 138.004 413.101 138.444C414.136 139.059 417.219 139.455 422.35 139.63V145.102L407.41 144.706L392.534 145.102ZM421.121 109.439C425.174 109.57 429.766 109.636 434.897 109.636C439.856 109.636 444.297 109.57 448.22 109.439L434.38 75.4234L421.121 109.439Z" fill="black"/>
<path d="M511.531 145.102V139.696C516.705 139.521 519.766 139.169 520.715 138.642C521.706 138.114 522.375 137.235 522.72 136.005C523.194 134.115 523.431 128.424 523.431 118.931V79.4446C523.431 68.6775 523.366 62.6568 523.237 61.3823H513.988C509.332 61.3823 505.235 61.5361 501.7 61.8437C500.277 61.9756 499.458 62.1514 499.242 62.3711C498.94 62.6348 498.682 63.4039 498.466 64.6783C497.905 67.7546 497.582 71.2045 497.496 75.0279H492.128C491.955 66.0187 491.847 60.9428 491.804 59.8002C491.675 57.8665 491.459 55.779 491.158 53.5377L491.74 52.8785C493.766 53.0982 495.922 53.252 498.207 53.3399C501.915 53.4718 509.051 53.5377 519.615 53.5377H545.744C556.61 53.5377 563.875 53.4718 567.54 53.3399C569.523 53.252 571.528 53.0982 573.555 52.8785L574.202 53.5377C573.814 56.2185 573.576 58.5697 573.49 60.5912C573.447 60.9428 573.361 65.755 573.232 75.0279H567.863C567.777 71.6 567.497 68.326 567.023 65.2057C566.764 63.6236 566.484 62.6787 566.182 62.3711C565.923 62.1514 565.233 61.9975 564.112 61.9097C560.577 61.5581 556.33 61.3823 551.371 61.3823H542.122C541.993 62.9204 541.928 68.9412 541.928 79.4446V118.931C541.928 128.424 542.165 134.137 542.64 136.071C542.942 137.213 543.588 138.07 544.58 138.642C545.572 139.169 548.655 139.521 553.829 139.696V145.102C545.464 144.706 538.414 144.509 532.68 144.509C526.557 144.509 519.507 144.706 511.531 145.102Z" fill="black"/>
<path d="M592.497 145.102V141.542C595.084 140.312 597.197 139.037 598.835 137.719C599.094 135.873 599.31 132.885 599.482 128.753C599.827 121.195 600 115.701 600 112.273V82.6088C600 81.4662 599.935 77.1813 599.806 69.7542C599.676 64.7882 599.374 61.7558 598.9 60.6572C598.685 60.2177 598.361 59.8881 597.93 59.6683C596.766 59.141 593.661 58.7454 588.617 58.4818V52.8785L603.621 53.2081C606.597 53.252 609.442 53.274 612.159 53.274C618.066 53.274 624.641 53.2081 631.885 53.0763L645.014 52.7466C646.566 52.7466 649.714 52.8345 654.457 53.0103C654.888 53.0103 655.6 53.1422 656.591 53.4059L657.044 54.2628L655.815 63.7554C655.772 64.4146 655.556 67.5788 655.168 73.248H650.124C650.037 68.0623 649.843 64.8761 649.542 63.6895C649.369 63.0743 649.11 62.6348 648.765 62.3711C648.205 61.9756 646.48 61.624 643.591 61.3164C639.323 60.8329 635.14 60.5912 631.044 60.5912C627.207 60.5912 623.283 60.7451 619.273 61.0527C618.669 66.0187 618.368 72.3252 618.368 79.972V93.4858C621.3 93.7055 624.361 93.8154 627.552 93.8154C628.543 93.8154 632.122 93.7275 638.288 93.5517C640.616 93.5077 641.974 93.3539 642.362 93.0902C642.794 92.8266 643.117 92.3651 643.333 91.7059C643.85 90.0359 644.152 87.2453 644.238 83.3339H649.477L649.218 97.8365L649.477 112.273H643.915C643.958 107.175 643.634 104.033 642.945 102.847C642.427 101.968 641.5 101.418 640.164 101.199C637.188 100.715 633.373 100.473 628.716 100.473C624.533 100.473 621.084 100.605 618.368 100.869V128.819C618.368 131.94 618.432 134.62 618.562 136.862C622.054 137.125 626.193 137.257 630.98 137.257C635.636 137.257 639.926 137.103 643.85 136.796C647.817 136.488 650.253 136.049 651.158 135.477C651.46 135.302 651.741 134.906 651.999 134.291C652.775 132.181 653.595 128.182 654.457 122.293H659.76C658.812 130.995 658.337 138.158 658.337 143.783L657.497 144.64C654.737 144.948 650.814 145.102 645.726 145.102L635.313 144.904C625.051 144.772 617.98 144.706 614.099 144.706C613.064 144.706 605.864 144.838 592.497 145.102Z" fill="black"/>
<path d="M762.58 145.563C758.915 136.334 755.401 127.567 752.038 119.261L742.854 96.9137C735.653 79.3787 731.212 68.9412 729.53 65.6012C727.892 62.2173 726.642 60.2836 725.779 59.8002C724.486 59.097 721.812 58.7015 717.759 58.6136V52.8785C728.108 53.1861 734.403 53.3399 736.645 53.3399L759.863 52.8785V58.6136C756.242 58.6576 753.611 58.8773 751.973 59.2728C751.024 59.4926 750.356 59.8222 749.968 60.2616C749.623 60.6572 749.451 61.1845 749.451 61.8437C749.451 63.1622 750.873 67.3371 753.719 74.3687C755.358 78.4119 756.22 80.6092 756.306 80.9608C756.436 81.2684 756.587 81.664 756.759 82.1474L773.122 122.821L787.48 86.5641C787.825 85.7291 789.356 81.5761 792.072 74.105C794.012 68.8313 795.198 65.2936 795.629 63.4918C795.716 62.9644 795.759 62.437 795.759 61.9097C795.759 61.1625 795.629 60.6132 795.371 60.2616C795.155 59.8661 794.853 59.5804 794.465 59.4047C794.163 59.2728 793.387 59.1629 792.137 59.0751C789.334 58.8114 786.963 58.6576 785.022 58.6136V52.8785L801.45 53.274L815.42 52.8785V58.6136C811.238 59.0091 808.802 59.4706 808.112 59.9979C806.948 60.9208 804.512 65.9089 800.803 74.962L796.211 85.9049L787.48 107.131C780.064 125.238 775.041 138.048 772.411 145.563H762.58Z" fill="black"/>
<path d="M872.909 52.8785V58.6795C868.555 58.8114 865.968 58.9872 865.148 59.2069C864.329 59.3827 863.747 59.6244 863.402 59.932C863.057 60.1957 862.82 60.5473 862.691 60.9868C862.389 61.7339 862.173 63.1622 862.044 65.2716C861.958 66.4142 861.893 68.5677 861.85 71.7319C861.677 82.5429 861.591 88.3659 861.591 89.2009V115.767L861.785 127.831C861.785 132.357 862.001 135.302 862.432 136.664C862.604 137.279 862.885 137.763 863.273 138.114C863.704 138.422 864.351 138.686 865.213 138.905C866.118 139.081 868.684 139.213 872.909 139.301V145.102C865.881 144.838 858.379 144.706 850.402 144.706C843.46 144.706 837.273 144.838 831.84 145.102V139.301C836.324 139.125 838.911 138.971 839.601 138.839C840.507 138.664 841.11 138.422 841.412 138.114C841.757 137.807 841.973 137.455 842.059 137.059C842.188 136.532 842.361 134.467 842.576 130.863C842.921 125.589 843.094 120.711 843.094 116.228V88.6735C843.094 79.928 843.051 74.3028 842.964 71.7978C842.749 66.2165 842.49 62.7227 842.188 61.3164C842.059 60.7451 841.843 60.3056 841.542 59.9979C841.283 59.6903 840.765 59.4486 839.989 59.2728C839.256 59.0531 836.54 58.8553 831.84 58.6795V52.8785C837.273 53.1422 843.503 53.274 850.532 53.274C858.422 53.274 865.881 53.1422 872.909 52.8785Z" fill="black"/>
<path d="M893.986 145.102V141.74C895.107 141.256 896.681 140.399 898.708 139.169C899.613 138.642 900.195 138.202 900.454 137.851C900.626 137.631 900.734 137.389 900.777 137.125C900.993 136.027 901.187 132.115 901.359 125.391C901.532 118.624 901.618 110.515 901.618 101.067C901.618 87.1793 901.575 78.6096 901.489 75.3575C901.316 67.0954 901.036 62.3711 900.648 61.1845C900.475 60.6572 900.152 60.2616 899.678 59.9979C898.686 59.3387 895.388 58.8993 889.782 58.6795V52.8785C895.258 53.1422 901.51 53.274 908.538 53.274C916.386 53.274 923.823 53.1422 930.852 52.8785V58.6795C925.979 58.8993 923.004 59.2948 921.926 59.8661C921.452 60.1298 921.107 60.5693 920.891 61.1845C920.676 61.7558 920.46 64.4586 920.245 69.2928C920.072 74.127 919.986 80.2357 919.986 87.6188C919.986 88.4099 920.008 94.7602 920.051 106.67C920.094 112.954 920.115 119.195 920.115 125.391C920.158 131.544 920.202 135.28 920.245 136.598C926.195 136.862 930.248 136.994 932.404 136.994C938.958 136.994 944.671 136.598 949.543 135.807C951.311 135.543 952.367 135.258 952.712 134.95C953.057 134.642 953.424 133.829 953.812 132.511C954.674 129.171 955.515 125.348 956.334 121.041H961.702C961.573 122.271 961.508 122.996 961.508 123.216L959.891 136.532C959.546 140.707 959.352 143.212 959.309 144.047C958.059 144.399 956.808 144.64 955.558 144.772C952.928 144.992 948.853 145.102 943.334 145.102C942.558 145.102 937.492 144.992 928.135 144.772C921.021 144.596 916.062 144.509 913.26 144.509C909.034 144.509 902.61 144.706 893.986 145.102Z" fill="black"/>
<path d="M982.908 145.102V141.74C984.029 141.256 985.603 140.399 987.629 139.169C988.535 138.642 989.117 138.202 989.376 137.851C989.548 137.631 989.656 137.389 989.699 137.125C989.915 136.027 990.109 132.115 990.281 125.391C990.454 118.624 990.54 110.515 990.54 101.067C990.54 87.1793 990.497 78.6096 990.41 75.3575C990.238 67.0954 989.958 62.3711 989.57 61.1845C989.397 60.6572 989.074 60.2616 988.6 59.9979C987.608 59.3387 984.309 58.8993 978.704 58.6795V52.8785C984.18 53.1422 990.432 53.274 997.46 53.274C1005.31 53.274 1012.75 53.1422 1019.77 52.8785V58.6795C1014.9 58.8993 1011.93 59.2948 1010.85 59.8661C1010.37 60.1298 1010.03 60.5693 1009.81 61.1845C1009.6 61.7558 1009.38 64.4586 1009.17 69.2928C1008.99 74.127 1008.91 80.2357 1008.91 87.6188C1008.91 88.4099 1008.93 94.7602 1008.97 106.67C1009.02 112.954 1009.04 119.195 1009.04 125.391C1009.08 131.544 1009.12 135.28 1009.17 136.598C1015.12 136.862 1019.17 136.994 1021.33 136.994C1027.88 136.994 1033.59 136.598 1038.46 135.807C1040.23 135.543 1041.29 135.258 1041.63 134.95C1041.98 134.642 1042.35 133.829 1042.73 132.511C1043.6 129.171 1044.44 125.348 1045.26 121.041H1050.62C1050.49 122.271 1050.43 122.996 1050.43 123.216L1048.81 136.532C1048.47 140.707 1048.27 143.212 1048.23 144.047C1046.98 144.399 1045.73 144.64 1044.48 144.772C1041.85 144.992 1037.77 145.102 1032.26 145.102C1031.48 145.102 1026.41 144.992 1017.06 144.772C1009.94 144.596 1004.98 144.509 1002.18 144.509C997.956 144.509 991.531 144.706 982.908 145.102Z" fill="black"/>
<path d="M1066.14 145.102V139.63C1069.63 139.367 1071.7 139.147 1072.35 138.971C1073.04 138.751 1073.62 138.444 1074.09 138.048C1074.57 137.609 1075.04 136.95 1075.52 136.071C1076.03 135.148 1077.52 131.786 1079.98 125.985C1081.1 123.26 1083.26 117.877 1086.45 109.834L1103.33 67.3811L1109.02 52.417H1118.2L1147.11 121.238L1151.12 130.27L1153.71 136.334C1154.14 137.125 1154.55 137.697 1154.94 138.048C1155.33 138.4 1155.76 138.664 1156.23 138.839C1156.75 139.015 1158.02 139.169 1160.05 139.301C1160.69 139.389 1161.64 139.499 1162.89 139.63V145.102L1144.91 144.706L1122.21 145.102V139.63C1127.43 139.411 1130.36 139.125 1131.01 138.773C1131.7 138.378 1132.04 137.741 1132.04 136.862C1132.04 135.763 1131.55 133.961 1130.56 131.456L1124.99 116.954H1091.75L1088.9 124.864C1086.75 130.929 1085.67 134.708 1085.67 136.203C1085.67 137.257 1086.02 138.004 1086.71 138.444C1087.74 139.059 1090.82 139.455 1095.95 139.63V145.102L1081.01 144.706L1066.14 145.102ZM1094.73 109.439C1098.78 109.57 1103.37 109.636 1108.5 109.636C1113.46 109.636 1117.9 109.57 1121.82 109.439L1107.98 75.4234L1094.73 109.439Z" fill="black"/>
<path d="M1240.69 77.0055H1235.26C1235.17 71.9077 1234.96 68.304 1234.61 66.1945C1233.28 64.2608 1230.95 62.5469 1227.63 61.0527C1224.35 59.5585 1220.66 58.8114 1216.57 58.8114C1210.7 58.8114 1206.15 60.3276 1202.92 63.3599C1199.73 66.3483 1198.13 69.8641 1198.13 73.9073C1198.18 76.8078 1198.65 79.159 1199.56 80.9608C1200.46 82.7626 1201.76 84.1909 1203.44 85.2457C1205.12 86.3004 1207.6 87.2672 1210.88 88.1462C1213.38 88.6735 1216.85 89.3328 1221.29 90.1238C1225.77 90.9149 1228.68 91.4642 1230.02 91.7718C1233.51 92.6947 1236.34 93.8154 1238.49 95.1338C1240.65 96.4083 1242.35 97.9025 1243.6 99.6164C1244.9 101.286 1245.95 103.418 1246.77 106.011C1247.59 108.56 1248 111.438 1248 114.646C1248 120.272 1246.86 125.216 1244.57 129.479C1242.85 132.687 1240.45 135.631 1237.39 138.312C1234.33 140.949 1231.18 142.926 1227.95 144.245C1222.78 146.354 1216.57 147.409 1209.32 147.409C1204.02 147.409 1199.3 146.904 1195.16 145.893C1191.02 144.882 1186.47 143.146 1181.51 140.685C1182.85 135.675 1183.54 128.05 1183.58 117.811H1189.02C1188.93 120.975 1189.17 124.908 1189.73 129.61C1191.37 132.335 1194.17 134.73 1198.13 136.796C1202.1 138.861 1206.43 139.894 1211.13 139.894C1215.23 139.894 1218.87 139.169 1222.06 137.719C1225.3 136.224 1227.63 134.181 1229.05 131.588C1230.52 128.995 1231.25 126.051 1231.25 122.755C1231.25 119.986 1230.73 117.613 1229.7 115.635C1228.7 113.658 1227.13 112.075 1224.98 110.889C1222.82 109.702 1219.02 108.472 1213.59 107.197C1205.79 105.527 1200.66 104.319 1198.2 103.572C1194.49 102.429 1191.49 100.781 1189.21 98.6276C1186.97 96.4742 1185.29 93.8813 1184.16 90.8489C1183.04 87.7726 1182.48 84.4766 1182.48 80.9608C1182.48 76.0387 1183.5 71.5121 1185.52 67.3811C1187.55 63.2061 1190.22 59.976 1193.54 57.6907C1196.86 55.4055 1200.61 53.7794 1204.8 52.8126C1208.98 51.8018 1213.27 51.2964 1217.67 51.2964C1222.24 51.2964 1226.66 51.7139 1230.93 52.5489C1235.24 53.3839 1238.97 54.5924 1242.11 56.1745L1242.63 57.7566C1242.03 60.6132 1241.58 63.4258 1241.27 66.1945C1241.01 68.9192 1240.82 72.5229 1240.69 77.0055Z" fill="black"/>
<path d="M41.8175 62.2963C41.5082 62.401 41.3385 62.4587 41.3385 62.4587L42.7788 55.7931L34.64 64.9496C31.785 66.0354 28.8536 67.1826 25.9166 68.377C25.1008 68.7088 25.7448 62.185 25.7448 62.185L21.385 70.2576C21.385 70.2576 7.51967 77.6527 1.05236 81.7126C-1.00091 83.0015 2.03512 52 58.4025 38.5331C58.4025 38.5331 48.6718 37.3493 45.1375 36.9924C43.9999 36.8775 46.9999 33.0006 46.9999 33.0006L35.5474 36.1197C32.9769 35.9139 30.3834 35.7312 27.8269 35.5846L29.4311 30.5095C28.1411 30.4589 19.9153 35.2532 18.9865 35.2365C11.1535 35.0953 3.48815 35.5082 0.118652 36.9326L4.24818 33.4447L2.03512 33.7016L2.29418 32.7883C2.57403 32.6091 2.85349 32.4298 3.13284 32.2506C15.0149 24.6275 26.688 17.1384 59.4999 23.0006C54.5615 18.0624 46.7927 17.4665 40.3259 13.0796L45.6718 9.54014L36.1472 10.4476C30.3041 7.06392 19.0697 5.3899 19.0697 5.3899C19.0697 5.3899 53.5 -8.5 73.6874 18.4999C73.6874 18.4999 80.5 1.5 122 0.5C120.279 2.004 116 4 116 4C116 4 117.06 4.9909 116.5 5.5C114.458 7.3573 112.5 8.5 109.786 10.2353C108.5 11 102.46 10.4499 102.46 10.4499C102.46 10.4499 105.297 12.6592 104.667 13.3042C99.5 16 88.5 23.5 88.5 23.5C106.5 21.5 136.885 23.7797 147.591 42.0061C146.894 41.7632 145.877 41.3675 144.797 40.9476C143.186 40.3207 140.435 38.6398 139.403 38.3327C138.731 38.1332 138.566 38.4454 138.399 38.7612C138.234 39.0728 138.067 39.388 137.411 39.2186C125.925 37.0352 118.234 35.679 114.767 35.9542C111.3 36.2294 108.072 34.2234 108.072 34.2234L108.45 36.6774C96.2023 38.2986 91.6235 36.7104 85.1652 38.641C109.242 42.2021 122.979 51.5574 126.282 64.2219C128.798 71.3034 127.499 79.7665 124.013 86.2658C121.722 90.6195 118.11 94.2102 113.176 97.0379C108.286 99.8206 103.043 101.212 97.448 101.212C94.9326 101.212 92.7338 100.844 90.3158 100.269C89.369 97.5686 87.3326 94.0082 87.3326 94.0082C87.3326 94.0082 90.2009 94.5693 91.038 94.7488C91.9191 94.8834 92.7121 94.9508 93.417 94.9508C97.6903 94.9508 101.215 93.4247 103.99 90.3726C106.766 87.2757 108.153 82.7873 108.153 76.9076C108.153 74.959 108.007 73.1636 107.715 71.5215C107.086 67.9818 105.778 65.1541 103.792 63.0385C100.884 59.9416 96.8312 58.3931 91.6327 58.3931C89.1656 58.3931 86.4122 58.6848 83.3724 59.2683C83.1521 62.0511 83.02 66.1355 82.9759 71.5215L82.7777 84.7173V110.234C82.7777 116.517 82.8658 123.025 83.042 129.758C83.1742 133.663 83.4165 136.131 83.7689 137.164C83.9451 137.613 84.2315 138.017 84.628 138.376C85.0685 138.69 85.8395 138.937 86.9409 139.116L95.862 139.722V145.647C84.5839 145.377 76.1033 145.243 70.4202 145.243C64.1644 145.243 58.1949 145.377 52.5118 145.647V139.722C57.4019 139.632 60.4858 139.251 61.7634 138.578C62.1599 138.353 62.4683 138.017 62.6885 137.568C62.9969 136.939 63.2392 135.301 63.4155 132.653C63.9001 125.472 64.1424 117.482 64.1424 108.685V84.9193L63.878 72.2621C63.7899 66.8312 63.6798 63.4425 63.5476 62.096C63.4595 60.7495 63.2613 58.2905 62.9529 57.707C61.2904 55.5487 53.3096 58.394 47.4334 60.4889C45.0023 61.3556 42.9316 62.0939 41.8175 62.2963Z" fill="black"/>
<path d="M356.95 249.501L353.708 245.763C355.689 242.611 357.13 240.54 358.03 239.549C359.351 238.048 360.762 236.938 362.263 236.217C363.794 235.467 365.28 235.091 366.721 235.091C367.952 235.091 369.348 235.316 370.909 235.767C372.47 236.217 375.367 237.358 379.6 239.189C382.031 240.24 383.712 240.915 384.643 241.215C385.574 241.486 386.549 241.621 387.57 241.621C389.131 241.621 390.707 241.005 392.298 239.774C393.919 238.544 395.495 236.517 397.026 233.695L400.223 237.298C398.332 240.78 396.276 243.347 394.054 244.998C391.863 246.619 389.671 247.43 387.48 247.43C386.339 247.43 385.183 247.264 384.013 246.934C382.512 246.484 379.044 245.148 373.611 242.927C371.509 242.056 370.068 241.516 369.288 241.305C368.507 241.095 367.712 240.99 366.901 240.99C365.67 240.99 364.545 241.26 363.524 241.801C362.503 242.341 361.453 243.242 360.372 244.503C360.072 244.863 358.931 246.529 356.95 249.501Z" fill="black"/>
<path d="M428.782 210.742V207.861C431.934 207.981 434.951 208.041 437.833 208.041C440.745 208.041 443.537 207.981 446.209 207.861C448.85 213.865 451.267 219.133 453.458 223.666L470.525 258.789L485.925 226.593C490.128 217.827 492.935 211.583 494.346 207.861C497.528 207.981 500.215 208.041 502.406 208.041C504.417 208.041 507.675 207.981 512.178 207.861V210.742C508.605 210.803 506.429 210.968 505.648 211.238C504.898 211.478 504.372 211.823 504.072 212.273C503.682 212.874 503.457 214.33 503.397 216.641C503.367 217.242 503.292 221.505 503.172 229.43V250.279C503.172 254.361 503.232 258.339 503.352 262.212C503.442 265.064 503.652 266.76 503.982 267.3C504.342 267.84 504.898 268.246 505.648 268.516C506.429 268.756 508.605 268.906 512.178 268.966V271.848C506.113 271.578 501.836 271.443 499.344 271.443C497.333 271.443 492.89 271.578 486.015 271.848V268.966C489.587 268.906 491.764 268.756 492.544 268.516C493.325 268.246 493.85 267.885 494.12 267.435C494.511 266.835 494.736 265.379 494.796 263.067C494.826 262.437 494.901 258.174 495.021 250.279V217.227L479.486 249.738C477.054 254.812 475.148 258.894 473.767 261.986C472.776 264.238 471.275 267.81 469.264 272.704H467.508C467.118 271.563 466.757 270.647 466.427 269.957L463.365 263.427L441.841 218.713V250.279C441.841 254.361 441.901 258.339 442.021 262.212C442.111 265.064 442.321 266.76 442.651 267.3C443.012 267.84 443.567 268.246 444.317 268.516C445.098 268.756 447.274 268.906 450.847 268.966V271.848L439.995 271.488L428.782 271.848V268.966C432.324 268.906 434.486 268.756 435.266 268.516C436.047 268.246 436.587 267.885 436.887 267.435C437.248 266.835 437.473 265.379 437.563 263.067C437.593 262.437 437.653 258.174 437.743 250.279V229.43C437.743 225.347 437.698 221.355 437.608 217.452C437.518 214.6 437.293 212.919 436.932 212.409C436.602 211.868 436.047 211.478 435.266 211.238C434.516 210.968 432.354 210.803 428.782 210.742Z" fill="black"/>
<path d="M528.603 271.848V269.011C531.755 268.981 533.826 268.741 534.817 268.291C535.237 268.111 535.537 267.825 535.717 267.435C536.018 266.835 536.228 265.259 536.348 262.707C536.528 258.744 536.618 255.322 536.618 252.44V229.43C536.618 225.347 536.573 221.355 536.483 217.452C536.393 214.6 536.168 212.919 535.807 212.409C535.477 211.868 534.922 211.478 534.141 211.238C533.391 210.968 531.229 210.803 527.657 210.742V207.861L540.491 208.131L554.09 207.906C560.604 207.816 565.332 207.77 568.274 207.77C571.246 207.77 574.053 207.936 576.695 208.266C576.214 209.977 575.884 211.463 575.704 212.724C575.644 212.994 575.374 216.116 574.893 222.09H572.057C572.087 219.028 571.891 216.236 571.471 213.714C569.82 213.024 568.004 212.559 566.023 212.319C562.66 211.898 559.298 211.688 555.936 211.688C555.215 211.688 553.609 211.748 551.118 211.868C548.626 211.988 546.84 212.093 545.759 212.183C545.639 215.516 545.549 218.638 545.489 221.55L545.309 236.77C548.821 236.95 552.048 237.04 554.99 237.04C558.563 237.04 561.61 236.875 564.131 236.545C565.092 236.425 565.707 236.184 565.977 235.824C566.248 235.464 566.488 234.233 566.698 232.132L566.968 228.98H569.67V229.835L569.445 239.201L569.67 249.693H566.518L566.383 246.631C566.323 244.41 566.113 243.029 565.752 242.489C565.422 241.948 564.777 241.573 563.816 241.363C562.105 241.003 558.788 240.822 553.864 240.822C551.853 240.822 549.001 240.897 545.309 241.048C545.159 244.05 545.084 248.508 545.084 254.421C545.084 259.975 545.159 264.193 545.309 267.075C549.632 267.405 554.48 267.57 559.853 267.57C563.666 267.57 566.383 267.45 568.004 267.21C569.625 266.97 571.126 266.565 572.507 265.994C572.867 265.064 573.227 263.803 573.588 262.212C574.248 259.54 574.683 257.529 574.893 256.178H577.865C577.085 262.242 576.695 267.27 576.695 271.263C574.113 271.653 570.976 271.848 567.283 271.848L540.4 271.488C540.01 271.488 536.078 271.608 528.603 271.848Z" fill="black"/>
<path d="M594.245 271.848V268.876C596.347 268.876 597.728 268.741 598.388 268.471C599.079 268.171 599.919 267.435 600.91 266.264C601.901 265.094 604.152 262.047 607.664 257.123L619.958 240.102L611.987 226.548C611.297 225.407 609.916 223.366 607.845 220.424C605.803 217.452 604.002 215.2 602.441 213.669C601.781 213.069 601.165 212.679 600.595 212.499C600.054 212.319 598.373 212.228 595.551 212.228V209.617L608.7 207.455C609.841 208.236 610.907 209.256 611.897 210.517C613.308 212.319 615.289 215.426 617.841 219.839L625.406 232.942C634.622 219.854 639.381 212.694 639.681 211.463V207.861C642.923 207.981 645.144 208.041 646.345 208.041C647.546 208.041 649.362 207.981 651.794 207.861V210.607C649.903 210.697 648.717 210.818 648.236 210.968C647.756 211.088 647.321 211.268 646.931 211.508C646.39 211.868 645.595 212.664 644.544 213.895C643.493 215.125 641.557 217.647 638.735 221.46C635.913 225.272 633.316 228.799 630.945 232.042L627.568 236.545L642.833 261.221C644.814 264.433 646.285 266.565 647.246 267.615C647.696 268.126 648.191 268.456 648.732 268.606C649.272 268.756 650.533 268.846 652.514 268.876V271.848C649.242 271.728 647.036 271.668 645.895 271.668C644.634 271.668 642.398 271.728 639.185 271.848C637.384 269.146 635.718 266.489 634.187 263.878L622.344 243.659L616.625 251.765C610.982 260.17 607.574 265.784 606.404 268.606L606.314 271.848C603.191 271.728 601.09 271.668 600.009 271.668C599.289 271.668 597.368 271.728 594.245 271.848Z" fill="black"/>
<path d="M694.066 268.966V271.848C687.672 271.608 683.469 271.488 681.458 271.488L667.543 271.848V268.966C671.086 268.906 673.247 268.756 674.028 268.516C674.808 268.246 675.349 267.885 675.649 267.435C676.009 266.835 676.234 265.379 676.324 263.067C676.354 262.437 676.414 258.174 676.504 250.279V229.43C676.504 225.347 676.459 221.355 676.369 217.452C676.279 214.6 676.054 212.919 675.694 212.409C675.364 211.868 674.808 211.478 674.028 211.238C673.277 210.968 671.116 210.803 667.543 210.742V207.861C673.277 208.071 677.705 208.176 680.827 208.176C683.829 208.176 688.242 208.071 694.066 207.861V210.742C690.494 210.803 688.317 210.968 687.537 211.238C686.786 211.478 686.261 211.823 685.961 212.273C685.6 212.874 685.375 214.33 685.285 216.641C685.255 217.242 685.195 221.505 685.105 229.43V250.279C685.105 254.361 685.15 258.339 685.24 262.212C685.33 265.064 685.54 266.76 685.871 267.3C686.231 267.84 686.786 268.246 687.537 268.516C688.317 268.756 690.494 268.906 694.066 268.966Z" fill="black"/>
<path d="M770.381 263.878L768.625 268.066C765.113 269.837 761.675 271.113 758.313 271.893C754.951 272.704 751.288 273.109 747.326 273.109C742.673 273.109 738.35 272.523 734.357 271.353C730.364 270.182 726.867 268.516 723.865 266.354C720.893 264.163 718.462 261.716 716.57 259.015C714.679 256.313 713.238 253.386 712.247 250.234C711.257 247.052 710.761 243.569 710.761 239.787C710.761 230.21 714.094 222.285 720.758 216.011C727.452 209.707 736.579 206.555 748.136 206.555C750.868 206.555 753.39 206.72 755.701 207.05C758.043 207.35 760.88 207.951 764.212 208.851C767.574 209.722 769.631 210.232 770.381 210.382C769.721 212.033 769.225 213.654 768.895 215.245C768.415 217.797 768.085 220.754 767.904 224.116H765.068L765.022 218.803C764.722 215.861 763.086 213.669 760.114 212.228C757.172 210.787 752.849 210.067 747.146 210.067C742.883 210.127 739.265 210.682 736.293 211.733C733.321 212.754 730.695 214.39 728.413 216.641C726.162 218.863 724.315 221.7 722.874 225.152C721.434 228.574 720.698 232.882 720.668 238.076C720.668 247.172 723.445 254.497 728.998 260.05C734.552 265.574 741.892 268.336 751.018 268.336C755.131 268.336 758.943 267.765 762.456 266.625C764.857 265.844 767.244 264.613 769.616 262.932L770.381 263.878Z" fill="black"/>
<path d="M786.221 240.282C786.221 235.539 786.926 231.156 788.337 227.133C789.778 223.111 792.15 219.493 795.452 216.281C798.754 213.069 802.492 210.652 806.664 209.031C810.837 207.38 815.61 206.555 820.984 206.555C825.937 206.555 830.44 207.26 834.493 208.671C838.546 210.052 841.863 211.898 844.444 214.21C847.056 216.491 849.113 218.998 850.614 221.73C851.754 223.771 852.655 226.173 853.315 228.935C854.006 231.696 854.351 234.653 854.351 237.805C854.351 247.922 850.944 256.343 844.129 263.067C837.345 269.792 828.774 273.154 818.417 273.154C813.704 273.154 809.306 272.388 805.223 270.857C801.141 269.326 797.688 267.06 794.867 264.058C792.045 261.026 789.898 257.363 788.427 253.071C786.956 248.748 786.221 244.485 786.221 240.282ZM795.587 236.545C795.587 239.396 795.872 242.293 796.443 245.235C797.013 248.177 797.733 250.714 798.604 252.845C800.045 256.448 801.921 259.48 804.233 261.941C806.574 264.373 809.171 266.174 812.023 267.345C814.905 268.486 818.087 269.056 821.569 269.056C826.403 269.056 830.605 267.885 834.178 265.544C837.75 263.172 840.407 259.855 842.148 255.592C843.919 251.299 844.805 246.361 844.805 240.777C844.805 236.004 844.174 231.606 842.913 227.584C842.133 225.122 841.097 222.901 839.806 220.919C838.516 218.908 836.969 217.167 835.168 215.696C833.397 214.195 831.086 212.934 828.234 211.913C825.382 210.893 822.305 210.382 819.003 210.382C814.229 210.382 810.042 211.448 806.439 213.579C802.837 215.711 800.12 218.803 798.289 222.856C796.488 226.878 795.587 231.441 795.587 236.545Z" fill="black"/>
<path d="M886.557 249.501L883.315 245.763C885.296 242.611 886.737 240.54 887.638 239.549C888.959 238.048 890.37 236.938 891.871 236.217C893.402 235.467 894.888 235.091 896.329 235.091C897.559 235.091 898.955 235.316 900.516 235.767C902.077 236.217 904.974 237.358 909.207 239.189C911.639 240.24 913.32 240.915 914.25 241.215C915.181 241.486 916.157 241.621 917.177 241.621C918.739 241.621 920.315 241.005 921.906 239.774C923.527 238.544 925.103 236.517 926.634 233.695L929.831 237.298C927.94 240.78 925.883 243.347 923.662 244.998C921.47 246.619 919.279 247.43 917.087 247.43C915.947 247.43 914.791 247.264 913.62 246.934C912.119 246.484 908.652 245.148 903.218 242.927C901.117 242.056 899.676 241.516 898.895 241.305C898.115 241.095 897.319 240.99 896.509 240.99C895.278 240.99 894.152 241.26 893.131 241.801C892.111 242.341 891.06 243.242 889.979 244.503C889.679 244.863 888.538 246.529 886.557 249.501Z" fill="black"/>
</svg>
