<svg width="22" height="24" viewBox="0 0 22 24" fill="none" xmlns="http://www.w3.org/2000/svg">
<path d="M3.55472 3.85651L9.65191 11.5541C9.94356 11.9223 9.93964 12.4438 9.64249 12.8076L3.55714 20.2574C2.87032 21.0982 1.52403 20.3958 1.82075 19.3515L3.78053 12.4538C3.83055 12.2777 3.83129 12.0913 3.78268 11.9149L1.80676 4.74303C1.51735 3.69259 2.87819 3.00241 3.55472 3.85651Z" fill="black"/>
<path d="M14.4414 3.85651L20.5386 11.5541C20.8303 11.9223 20.8264 12.4438 20.5292 12.8076L14.4439 20.2574C13.757 21.0982 12.4107 20.3958 12.7075 19.3515L14.6672 12.4538C14.7173 12.2777 14.718 12.0913 14.6694 11.9149L12.6935 4.74303C12.4041 3.69259 13.7649 3.00241 14.4414 3.85651Z" fill="black"/>
</svg>
