<svg width="23" height="22" viewBox="0 0 23 22" fill="none" xmlns="http://www.w3.org/2000/svg">
<path d="M8.36027 7.70451L15.0269 14.3712M15.0269 7.70451L8.36027 14.3712M7.02694 21.0378H16.3603C18.2271 21.0378 19.1605 21.0378 19.8736 20.6745C20.5008 20.355 21.0107 19.845 21.3303 19.2178C21.6936 18.5048 21.6936 17.5714 21.6936 15.7045V6.37118C21.6936 4.50433 21.6936 3.57091 21.3303 2.85787C21.0107 2.23067 20.5008 1.72073 19.8736 1.40115C19.1605 1.03784 18.2271 1.03784 16.3603 1.03784H7.02694C5.1601 1.03784 4.22667 1.03784 3.51364 1.40115C2.88643 1.72073 2.37649 2.23067 2.05692 2.85787C1.6936 3.57091 1.6936 4.50433 1.6936 6.37118V15.7045C1.6936 17.5714 1.6936 18.5048 2.05692 19.2178C2.37649 19.845 2.88643 20.355 3.51364 20.6745C4.22667 21.0378 5.1601 21.0378 7.02694 21.0378Z" stroke="black" stroke-width="1.5" stroke-linecap="round" stroke-linejoin="round"/>
</svg>
