<svg width="23" height="24" viewBox="0 0 23 24" fill="none" xmlns="http://www.w3.org/2000/svg">
<path d="M21.138 6.60167L11.6936 11.8486M11.6936 11.8486L2.24912 6.60167M11.6936 11.8486L11.6936 22.4042M21.6936 16.3581V7.33911C21.6936 6.9584 21.6936 6.76804 21.6375 6.59826C21.5879 6.44807 21.5068 6.3102 21.3996 6.19388C21.2784 6.06239 21.112 5.96995 20.7792 5.78505L12.557 1.21715C12.2419 1.04209 12.0843 0.954557 11.9174 0.92024C11.7698 0.889868 11.6174 0.889868 11.4698 0.92024C11.3029 0.954557 11.1454 1.04209 10.8302 1.21715L2.60802 5.78506C2.27521 5.96995 2.10881 6.06239 1.98764 6.19388C1.88045 6.3102 1.79932 6.44807 1.7497 6.59827C1.6936 6.76804 1.6936 6.9584 1.6936 7.33911V16.3581C1.6936 16.7388 1.6936 16.9292 1.7497 17.099C1.79932 17.2492 1.88045 17.387 1.98764 17.5034C2.10881 17.6348 2.27521 17.7273 2.60802 17.9122L10.8302 22.4801C11.1454 22.6551 11.3029 22.7427 11.4698 22.777C11.6174 22.8074 11.7698 22.8074 11.9174 22.777C12.0843 22.7427 12.2419 22.6551 12.557 22.4801L20.7792 17.9122C21.112 17.7273 21.2784 17.6348 21.3996 17.5034C21.5068 17.387 21.5879 17.2492 21.6375 17.099C21.6936 16.9292 21.6936 16.7388 21.6936 16.3581Z" stroke="black" stroke-width="1.5" stroke-linecap="round" stroke-linejoin="round"/>
</svg>
