<svg width="23" height="21" viewBox="0 0 23 21" fill="none" xmlns="http://www.w3.org/2000/svg">
<path d="M15.4282 5.52637C15.4282 4.5964 15.4282 4.13141 15.326 3.74991C15.0486 2.71463 14.24 1.90599 13.2047 1.62859C12.8232 1.52637 12.3582 1.52637 11.4282 1.52637C10.4983 1.52637 10.0333 1.52637 9.65177 1.62859C8.61649 1.90599 7.80785 2.71463 7.53045 3.74991C7.42822 4.13141 7.42822 4.5964 7.42822 5.52637M4.62822 19.5264H18.2282C19.3483 19.5264 19.9084 19.5264 20.3362 19.3084C20.7125 19.1166 21.0185 18.8107 21.2102 18.4343C21.4282 18.0065 21.4282 17.4465 21.4282 16.3264V8.72637C21.4282 7.60626 21.4282 7.04621 21.2102 6.61839C21.0185 6.24206 20.7125 5.9361 20.3362 5.74435C19.9084 5.52637 19.3483 5.52637 18.2282 5.52637H4.62822C3.50812 5.52637 2.94807 5.52637 2.52024 5.74435C2.14392 5.9361 1.83796 6.24206 1.64621 6.61839C1.42822 7.04621 1.42822 7.60626 1.42822 8.72637V16.3264C1.42822 17.4465 1.42822 18.0065 1.64621 18.4343C1.83796 18.8107 2.14392 19.1166 2.52024 19.3084C2.94807 19.5264 3.50812 19.5264 4.62822 19.5264Z" stroke="black" stroke-width="1.5" stroke-linecap="round" stroke-linejoin="round"/>
</svg>
