<svg width="21" height="20" viewBox="0 0 21 20" fill="none" xmlns="http://www.w3.org/2000/svg">
<path d="M1 8.2C1 7.0799 1 6.51984 1.20553 6.09202C1.38632 5.71569 1.6748 5.40973 2.02962 5.21799C2.43299 5 2.96104 5 4.01714 5H16.84C17.8961 5 18.4241 5 18.8275 5.21799C19.1823 5.40973 19.4708 5.71569 19.6516 6.09202C19.8571 6.51984 19.8571 7.0799 19.8571 8.2V15.8C19.8571 16.9201 19.8571 17.4802 19.6516 17.908C19.4708 18.2843 19.1823 18.5903 18.8275 18.782C18.4241 19 17.8961 19 16.84 19H4.01714C2.96104 19 2.43299 19 2.02962 18.782C1.6748 18.5903 1.38632 18.2843 1.20553 17.908C1 17.4802 1 16.9201 1 15.8V8.2Z" fill="black"/>
<path d="M14.2 5C14.2 4.07003 14.2 3.60504 14.1036 3.22354C13.8421 2.18827 13.0796 1.37962 12.1035 1.10222C11.7438 1 11.3054 1 10.4286 1C9.55174 1 9.11333 1 8.75363 1.10222C7.77751 1.37962 7.01507 2.18827 6.75352 3.22354C6.65714 3.60504 6.65714 4.07003 6.65714 5M4.01714 19H16.84C17.8961 19 18.4241 19 18.8275 18.782C19.1823 18.5903 19.4708 18.2843 19.6516 17.908C19.8571 17.4802 19.8571 16.9201 19.8571 15.8V8.2C19.8571 7.07989 19.8571 6.51984 19.6516 6.09202C19.4708 5.71569 19.1823 5.40973 18.8275 5.21799C18.4241 5 17.8961 5 16.84 5H4.01714C2.96104 5 2.43299 5 2.02962 5.21799C1.6748 5.40973 1.38632 5.71569 1.20553 6.09202C1 6.51984 1 7.07989 1 8.2V15.8C1 16.9201 1 17.4802 1.20553 17.908C1.38632 18.2843 1.6748 18.5903 2.02962 18.782C2.43299 19 2.96104 19 4.01714 19Z" stroke="black" stroke-width="1.5" stroke-linecap="round" stroke-linejoin="round"/>
</svg>
