<svg width="630" height="629" viewBox="0 0 630 629" fill="none" xmlns="http://www.w3.org/2000/svg">
<path d="M286.303 353.688L490.616 149.376M288.786 360.072L339.924 491.571C344.429 503.156 346.682 508.948 349.928 510.639C352.741 512.105 356.093 512.107 358.908 510.644C362.156 508.957 364.415 503.168 368.934 491.589L497.171 162.981C501.25 152.529 503.29 147.302 502.174 143.963C501.205 141.062 498.929 138.786 496.029 137.817C492.689 136.702 487.463 138.741 477.01 142.82L148.403 271.057C136.824 275.576 131.034 277.836 129.347 281.083C127.884 283.899 127.886 287.25 129.352 290.064C131.043 293.31 136.836 295.562 148.42 300.067L279.919 351.206C282.271 352.12 283.447 352.578 284.437 353.284C285.314 353.91 286.082 354.677 286.708 355.555C287.414 356.545 287.871 357.721 288.786 360.072Z" stroke="#001426" stroke-width="27" stroke-linecap="round" stroke-linejoin="round"/>
</svg>
