<svg width="23" height="25" viewBox="0 0 23 25" fill="none" xmlns="http://www.w3.org/2000/svg">
<path d="M20.4436 6.36434C20.8254 6.58152 21.1425 6.89653 21.3622 7.27695C21.5819 7.65738 21.6963 8.08948 21.6936 8.52878V16.6221C21.6936 17.521 21.2013 18.3499 20.4069 18.7865L12.9069 23.531C12.5351 23.7351 12.1178 23.8421 11.6936 23.8421C11.2694 23.8421 10.8521 23.7351 10.4802 23.531L2.98027 18.7865C2.59156 18.5741 2.26707 18.2612 2.04073 17.8804C1.81438 17.4996 1.69449 17.065 1.6936 16.6221V8.52767C1.6936 7.62878 2.18582 6.801 2.98027 6.36434L10.4802 1.94213C10.8631 1.73106 11.2931 1.62036 11.7302 1.62036C12.1674 1.62036 12.5974 1.73106 12.9802 1.94213L20.4802 6.36434H20.4436Z" stroke="black" stroke-width="1.5" stroke-linecap="round" stroke-linejoin="round"/>
<path d="M8.36025 12.731C8.36025 13.6151 8.71144 14.4629 9.33656 15.088C9.96168 15.7131 10.8095 16.0643 11.6936 16.0643C12.5776 16.0643 13.4255 15.7131 14.0506 15.088C14.6757 14.4629 15.0269 13.6151 15.0269 12.731C15.0269 11.847 14.6757 10.9991 14.0506 10.374C13.4255 9.74887 12.5776 9.39768 11.6936 9.39768C10.8095 9.39768 9.96168 9.74887 9.33656 10.374C8.71144 10.9991 8.36025 11.847 8.36025 12.731Z" stroke="black" stroke-width="1.5" stroke-linecap="round" stroke-linejoin="round"/>
</svg>
