<svg width="630" height="629" viewBox="0 0 630 629" fill="none" xmlns="http://www.w3.org/2000/svg">
<path d="M319.243 482.791C284.152 482.791 251.403 472.214 224.045 454.213L157.525 475.466L179.087 411.188C158.34 382.707 146.138 347.619 146.138 309.783C146.138 214.381 223.74 136.778 319.143 136.778C414.545 136.778 492.148 214.381 492.148 309.783C492.148 405.183 414.545 482.788 319.143 482.788H319.243V482.791ZM319.243 104.026C205.631 104.026 113.486 196.179 113.486 309.786C113.486 348.638 124.268 385.049 142.98 416.07L105.856 526.425L219.773 489.913C250.221 506.749 284.45 515.569 319.243 515.543C432.853 515.543 525 423.396 525 309.786C524.997 196.179 432.853 104.026 319.243 104.026Z" fill="#001426"/>
<path d="M270.931 224.657C267.575 216.623 265.032 216.318 259.948 216.112C258.018 215.987 256.084 215.92 254.15 215.911C247.536 215.911 240.622 217.843 236.451 222.114C231.367 227.301 218.754 239.403 218.754 264.221C218.754 289.039 236.858 313.041 239.298 316.4C241.841 319.752 274.593 371.421 325.446 392.478C365.214 408.955 377.014 407.428 386.065 405.496C399.286 402.648 415.866 392.88 420.036 381.085C424.207 369.285 424.207 359.215 422.984 357.08C421.764 354.944 418.406 353.727 413.322 351.181C408.239 348.638 383.521 336.433 378.842 334.805C374.264 333.077 369.892 333.688 366.436 338.571C361.554 345.386 356.774 352.303 352.908 356.471C349.857 359.726 344.871 360.134 340.703 358.403C335.108 356.067 319.447 350.57 300.12 333.381C285.168 320.06 274.998 303.483 272.05 298.5C269.099 293.416 271.746 290.462 274.082 287.718C276.626 284.564 279.066 282.327 281.609 279.377C284.152 276.429 285.576 274.902 287.203 271.443C288.934 268.087 287.711 264.628 286.491 262.085C285.271 259.542 275.101 234.724 270.931 224.657Z" fill="#001426"/>
</svg>
