<svg width="70" height="48" viewBox="0 0 70 48" fill="none" xmlns="http://www.w3.org/2000/svg">
<rect width="70" height="48" rx="6" fill="#6C1CD3"/>
<path d="M15.5089 16.7697L11.2753 16.7308V19.5395H18.2915L11 28.8857V31.2625H15.5089V34H18.2142V31.2625H22.8132C22.8519 31.153 22.8654 30.8577 22.6207 30.5872C22.2149 30.1363 21.8922 29.6651 21.5959 29.0725C21.4606 28.8084 21.3579 28.492 21.3192 28.4663C20.4136 28.4248 15.2033 28.4355 15.2062 28.4026L22.5041 18.9991V16.7697H18.2142V14H15.5089V16.7697H15.5089ZM35.0451 15.4622C34.9807 15.4879 34.9614 16.9114 34.9614 22.3027C34.9614 29.5878 34.9549 29.4654 35.277 30.0902C35.5668 30.6506 36.2754 31.153 37.0676 31.3591C37.5056 31.475 38.7939 31.4879 39.2899 31.3849C39.9275 31.2496 40.0499 31.0564 39.7987 30.5604C39.6377 30.2512 39.4251 29.5749 39.3736 29.2013C39.3027 28.7568 39.2126 28.686 38.6715 28.6989C38.4138 28.7053 38.1691 28.686 38.124 28.6602C37.8599 28.4928 37.8599 28.4477 37.8599 21.9227C37.8599 17.7295 37.8406 15.6232 37.7955 15.5395C37.7311 15.4235 37.6473 15.4171 36.4235 15.4235C35.7085 15.4235 35.0837 15.4428 35.0451 15.4622ZM40.9517 15.4815C40.868 15.533 40.8551 16.3575 40.8551 22.2576C40.8551 28.6151 40.8615 29.0016 40.9775 29.4461C41.1965 30.3221 41.6924 30.8567 42.6329 31.2496C42.9936 31.3977 43.1546 31.4235 43.8825 31.4428C44.8551 31.4686 45.351 31.3977 45.847 31.1465C46.3366 30.9082 46.3494 30.7407 45.9308 30.1288C45.7633 29.8841 45.5056 29.4654 45.3639 29.2013L45.1063 28.7182L44.6361 28.7118C44.0499 28.6989 43.992 28.6731 43.8825 28.3961C43.7987 28.2093 43.7858 27.2496 43.7858 21.9227C43.7858 17.7295 43.7665 15.6232 43.7214 15.5395C43.657 15.4235 43.5733 15.4171 42.3494 15.4171C41.6345 15.4171 41.0032 15.4493 40.9517 15.4815ZM58.0854 16.8663C57.5636 17.1047 57.2931 17.5169 57.2866 18.0902C57.2802 18.5797 57.4799 18.9533 57.8857 19.2174C58.3881 19.5588 59.1932 19.4622 59.6119 19.0113C60.1465 18.438 60.037 17.4461 59.38 17.0016C59.0386 16.7697 58.4396 16.7118 58.0854 16.8663ZM59.1159 17.1047C59.8438 17.4718 59.9533 18.4122 59.3349 18.9597C59.0709 19.1916 58.8841 19.2432 58.4783 19.2045C57.3575 19.095 57.1385 17.5233 58.182 17.0531C58.4654 16.9243 58.7939 16.9436 59.1159 17.1047Z" fill="white"/>
<path d="M58.1304 17.3945C58.0854 17.4718 58.0789 18.6699 58.124 18.7923C58.1433 18.8502 58.2013 18.8953 58.2528 18.8953C58.3172 18.8953 58.343 18.8052 58.343 18.5733C58.343 18.2834 58.3559 18.2512 58.4912 18.2512C58.5942 18.2512 58.6844 18.3414 58.8261 18.5733C58.942 18.7665 59.058 18.8953 59.1288 18.8953C59.2834 18.8953 59.277 18.8696 59.0387 18.5217C58.897 18.3156 58.8583 18.219 58.9163 18.1997C59.0837 18.1417 59.2448 17.9291 59.2448 17.7681C59.2448 17.4783 59.0387 17.3494 58.5749 17.3494C58.343 17.3494 58.1433 17.3688 58.1304 17.3945ZM58.9098 17.6006C58.9614 17.6264 58.9871 17.723 58.9742 17.8068C58.9549 17.942 58.9163 17.9614 58.6522 17.9807L58.343 18V17.7746C58.343 17.5491 58.3494 17.5427 58.5878 17.5427C58.7166 17.5427 58.8647 17.5684 58.9098 17.6006ZM26.942 19.5072C26.9098 19.5201 26.6586 19.5781 26.3945 19.6361C24.7391 20.0161 23.277 21.285 22.6586 22.8953C22.3172 23.7842 22.1949 24.4734 22.1884 25.4976C22.182 26.934 22.4718 27.9903 23.1353 28.9952C23.8825 30.1224 24.9775 30.8889 26.3945 31.2754C26.8776 31.4042 27.0902 31.4235 28.1981 31.4235C29.2931 31.4235 29.5185 31.4042 29.9759 31.2818C31.1095 30.9662 32.0757 30.4444 32.8551 29.7037C33.3511 29.2399 33.3446 29.1111 32.8422 28.7246C32.6361 28.5636 32.2625 28.2158 32.0177 27.9452C31.7085 27.6167 31.5217 27.4622 31.4251 27.4622C31.3349 27.4622 31.1288 27.591 30.9292 27.7842C30.2399 28.409 29.3704 28.7053 28.2303 28.6989C27.1868 28.6924 26.4267 28.4219 25.9436 27.868C25.6989 27.591 25.3897 26.9597 25.3253 26.6055L25.2866 26.3671H29.2995C31.5089 26.3671 33.3575 26.3414 33.4026 26.3092C33.6151 26.1739 33.6667 25.2399 33.5121 24.2222C33.1449 21.7874 31.6892 20.1514 29.4026 19.6039C28.9968 19.5072 28.6618 19.475 27.9404 19.4815C27.4251 19.4815 26.9807 19.4944 26.942 19.5072ZM28.6618 21.9936C29.1321 22.0902 29.7118 22.4122 29.9823 22.7214C30.2335 23.0048 30.4911 23.5137 30.5556 23.8422L30.6007 24.0483H25.3511L25.3961 23.8422C25.5894 22.9726 26.3366 22.2448 27.2641 22.0129C27.6763 21.9098 28.2303 21.9034 28.6618 21.9936ZM50.3559 19.5652C48.0692 20.0741 46.5234 21.6844 46.0403 24.0612C45.7504 25.4654 45.9114 27.1014 46.4589 28.2738C47.2061 29.8969 48.5652 30.9469 50.4203 31.3269C51.0064 31.4493 51.2383 31.4622 52.1594 31.4364C52.9388 31.4106 53.3575 31.3655 53.7182 31.2689C54.8197 30.9791 55.7858 30.4509 56.5266 29.7424C57.0934 29.1948 57.0934 29.1691 56.4815 28.6602C56.1981 28.4283 55.818 28.0612 55.6377 27.8486C55.219 27.3655 55.1095 27.3591 54.6393 27.7842C53.9372 28.4219 53.0998 28.7053 51.934 28.6989C50.2979 28.6924 49.3446 27.9903 49.0354 26.5733L48.9903 26.4061H57.1514C57.4283 26.2064 57.3253 24.0934 56.9903 23.1143C56.9259 22.9211 56.752 22.5346 56.6103 22.2641C55.8567 20.8213 54.6522 19.9259 52.9775 19.5717C52.4428 19.4557 50.8647 19.4557 50.3559 19.5652ZM52.3655 21.9936C52.8035 22.0902 53.2544 22.3156 53.5765 22.6055C53.847 22.8567 54.285 23.649 54.285 23.8937V24.0483H49.0548L49.0998 23.868C49.4348 22.4895 50.8519 21.6715 52.3655 21.9936Z" fill="white"/>
</svg>
