<svg width="70" height="48" viewBox="0 0 70 48" fill="none" xmlns="http://www.w3.org/2000/svg">
<rect x="0.5" y="0.5" width="69" height="47" rx="5.5" fill="white" stroke="#D9D9D9"/>
<path d="M16.3115 16.6485L12.2632 16.6112V19.297H18.9723L12 28.234V30.5068H16.3115V33.1245H18.8984V30.5068H23.2961C23.333 30.4021 23.346 30.1198 23.112 29.8611C22.7239 29.4299 22.4154 28.9793 22.132 28.4127C22.0027 28.1601 21.9045 27.8577 21.8675 27.833C21.0015 27.7933 16.0193 27.8036 16.0221 27.7721L23.0005 18.7803V16.6485H18.8984V14H16.3115V16.6485H16.3115ZM34.9925 15.3982C34.9309 15.4228 34.9124 16.784 34.9124 21.9393C34.9124 28.9054 34.9063 28.7884 35.2142 29.3858C35.4914 29.9217 36.1689 30.4021 36.9265 30.5992C37.3453 30.7101 38.5772 30.7224 39.0515 30.6238C39.6612 30.4945 39.7783 30.3097 39.538 29.8355C39.3841 29.5398 39.1808 28.8931 39.1315 28.5358C39.0638 28.1109 38.9775 28.0431 38.4602 28.0554C38.2138 28.0616 37.9797 28.0431 37.9366 28.0185C37.6841 27.8583 37.6841 27.8152 37.6841 21.5759C37.6841 17.5662 37.6656 15.5521 37.6225 15.4721C37.5609 15.3612 37.4809 15.355 36.3106 15.3612C35.6269 15.3612 35.0295 15.3797 34.9925 15.3982ZM40.6405 15.4166C40.5605 15.4659 40.5482 16.2543 40.5482 21.8962C40.5482 27.9754 40.5543 28.3449 40.6652 28.7699C40.8746 29.6076 41.3489 30.1188 42.2481 30.4945C42.593 30.6362 42.747 30.6608 43.443 30.6793C44.3731 30.7039 44.8473 30.6362 45.3216 30.3959C45.7897 30.1681 45.802 30.0079 45.4017 29.4228C45.2415 29.1887 44.9951 28.7884 44.8596 28.5358L44.6133 28.0739L44.1636 28.0677C43.6032 28.0554 43.5477 28.0308 43.443 27.7659C43.3629 27.5873 43.3506 26.6696 43.3506 21.5759C43.3506 17.5662 43.3321 15.5521 43.289 15.4721C43.2274 15.3612 43.1474 15.355 41.9771 15.355C41.2934 15.355 40.6898 15.3858 40.6405 15.4166ZM57.0242 16.7409C56.5253 16.9688 56.2666 17.363 56.2604 17.9111C56.2543 18.3792 56.4452 18.7365 56.8332 18.989C57.3137 19.3154 58.0836 19.223 58.4839 18.7919C58.9951 18.2437 58.8904 17.2952 58.2622 16.8702C57.9357 16.6485 57.3629 16.593 57.0242 16.7409ZM58.0097 16.9688C58.7057 17.3198 58.8104 18.2191 58.2191 18.7426C57.9665 18.9644 57.7879 19.0136 57.3999 18.9767C56.3282 18.872 56.1188 17.3691 57.1166 16.9195C57.3876 16.7963 57.7017 16.8148 58.0097 16.9688Z" fill="#6C1CD3"/>
<path d="M57.0673 17.2459C57.0242 17.3198 57.018 18.4655 57.0611 18.5825C57.0796 18.6379 57.135 18.681 57.1843 18.681C57.2459 18.681 57.2705 18.5948 57.2705 18.3731C57.2705 18.0959 57.2829 18.0651 57.4122 18.0651C57.5108 18.0651 57.597 18.1513 57.7325 18.3731C57.8434 18.5578 57.9542 18.681 58.022 18.681C58.1698 18.681 58.1636 18.6564 57.9357 18.3238C57.8002 18.1267 57.7633 18.0343 57.8187 18.0158C57.9789 17.9604 58.1328 17.7571 58.1328 17.6032C58.1328 17.326 57.9357 17.2028 57.4923 17.2028C57.2705 17.2028 57.0796 17.2213 57.0673 17.2459ZM57.8126 17.443C57.8618 17.4677 57.8865 17.56 57.8742 17.6401C57.8557 17.7695 57.8187 17.7879 57.5662 17.8064L57.2705 17.8249V17.6093C57.2705 17.3937 57.2767 17.3876 57.5046 17.3876C57.6278 17.3876 57.7694 17.4122 57.8126 17.443ZM27.2442 19.2662C27.2134 19.2785 26.9732 19.3339 26.7206 19.3893C25.1377 19.7527 23.7395 20.9661 23.1483 22.5059C22.8218 23.3559 22.7048 24.015 22.6986 24.9943C22.6925 26.3678 22.9696 27.3779 23.604 28.3387C24.3185 29.4166 25.3656 30.1496 26.7206 30.5191C27.1826 30.6423 27.3858 30.6608 28.4452 30.6608C29.4923 30.6608 29.7079 30.6423 30.1452 30.5253C31.2292 30.2235 32.1531 29.7246 32.8984 29.0163C33.3726 28.5728 33.3665 28.4496 32.886 28.0801C32.6889 27.9261 32.3317 27.5935 32.0977 27.3348C31.802 27.0207 31.6234 26.8728 31.531 26.8728C31.4448 26.8728 31.2477 26.996 31.0567 27.1808C30.3977 27.7783 29.5662 28.0616 28.476 28.0554C27.4782 28.0493 26.7514 27.7906 26.2895 27.2609C26.0554 26.996 25.7598 26.3924 25.6982 26.0537L25.6612 25.8258H29.4985C31.6111 25.8258 33.3788 25.8011 33.4219 25.7703C33.6252 25.641 33.6744 24.7479 33.5266 23.7747C33.1755 21.4465 31.7835 19.8821 29.597 19.3586C29.209 19.2662 28.8887 19.2354 28.1988 19.2415C27.7061 19.2415 27.2811 19.2538 27.2442 19.2662ZM28.8887 21.6436C29.3383 21.736 29.8926 22.044 30.1513 22.3396C30.3915 22.6106 30.6379 23.0972 30.6995 23.4113L30.7426 23.6084H25.7228L25.7659 23.4113C25.9507 22.5798 26.6652 21.8838 27.5521 21.6621C27.9463 21.5636 28.476 21.5574 28.8887 21.6436ZM49.6331 19.3216C47.4465 19.8082 45.9683 21.348 45.5064 23.6208C45.2292 24.9635 45.3832 26.5279 45.9067 27.6489C46.6212 29.201 47.9208 30.205 49.6947 30.5684C50.2551 30.6854 50.4769 30.6977 51.3577 30.6731C52.1029 30.6485 52.5033 30.6054 52.8482 30.513C53.9014 30.2358 54.8253 29.7307 55.5336 29.0532C56.0757 28.5297 56.0756 28.5051 55.4905 28.0185C55.2195 27.7967 54.8561 27.4457 54.6837 27.2424C54.2833 26.7805 54.1786 26.7743 53.729 27.1808C53.0576 27.7906 52.2569 28.0616 51.1421 28.0554C49.5776 28.0493 48.6661 27.3779 48.3704 26.0229L48.3273 25.863H56.1311C56.3959 25.6721 56.2974 23.6516 55.9771 22.7153C55.9155 22.5306 55.7492 22.161 55.6137 21.9023C54.8931 20.5227 53.7413 19.6665 52.1399 19.3278C51.6287 19.2169 50.1196 19.2169 49.6331 19.3216ZM51.5548 21.6436C51.9736 21.736 52.4047 21.9516 52.7127 22.2288C52.9714 22.469 53.3902 23.2266 53.3902 23.4606V23.6084H48.3889L48.432 23.436C48.7523 22.1179 50.1073 21.3357 51.5548 21.6436Z" fill="#6C1CD3"/>
</svg>
