<svg width="25" height="25" viewBox="0 0 25 25" fill="none" xmlns="http://www.w3.org/2000/svg">
<path d="M4.94454 10.0977L4.37619 22.3175C4.36252 22.6124 4.46701 22.8936 4.67111 23.1075C5.07932 23.5352 5.81369 23.5352 6.2219 23.1075C6.426 22.8936 6.53048 22.6133 6.51681 22.3175L5.94846 10.0977H4.94359H4.94454Z" fill="black"/>
<path d="M8.30956 8.07625V1.5625H7.01465V6.92979C7.01465 7.1456 6.83984 7.32042 6.62402 7.32042C6.4082 7.32042 6.2334 7.14561 6.2334 6.92979V1.5625H4.65429V6.92979C4.65429 7.1456 4.47949 7.32042 4.26367 7.32042C4.04785 7.32042 3.87304 7.14561 3.87304 6.92979V1.5625H2.57812V8.07625C2.57812 8.75887 3.13281 9.31454 3.81544 9.31454H7.07127C7.7539 9.31454 8.30956 8.75985 8.30956 8.07625Z" fill="black"/>
<path d="M13.5637 10.0977L12.9934 22.3164C12.9797 22.6123 13.0852 22.8936 13.2893 23.1074C13.6975 23.5352 14.4299 23.5352 14.8381 23.1074C15.0432 22.8926 15.1477 22.6123 15.134 22.3164L14.5637 10.0977H13.5627H13.5637Z" fill="black"/>
<path d="M16.9268 7.00979V4.42771C16.9268 2.84762 15.6416 1.5625 14.0616 1.5625C12.4815 1.5625 11.1953 2.84767 11.1953 4.42771V7.00979C11.1953 8.28029 12.2285 9.31437 13.4999 9.31437H14.6229C15.8934 9.31437 16.9275 8.28117 16.9275 7.00979H16.9268Z" fill="black"/>
<path d="M20.6574 23.1014C20.8528 23.3182 21.1203 23.4374 21.4114 23.4374C21.9699 23.4374 22.425 22.9823 22.425 22.4237V11.6758H21.5569L20.4045 22.3145C20.3733 22.6046 20.4631 22.8829 20.6575 23.1007L20.6574 23.1014Z" fill="black"/>
<path d="M22.4257 1.76562C21.5507 2.25683 19.8203 3.74706 19.8203 7.84958V10.0615L21.3086 10.8935H22.4258L22.4257 1.76562Z" fill="black"/>
</svg>
