<svg width="26" height="25" viewBox="0 0 26 25" fill="none" xmlns="http://www.w3.org/2000/svg">
<path d="M5.69454 10.0977L5.12619 22.3175C5.11252 22.6124 5.21701 22.8936 5.42111 23.1075C5.82932 23.5352 6.56369 23.5352 6.9719 23.1075C7.176 22.8936 7.28048 22.6133 7.26681 22.3175L6.69846 10.0977H5.69359H5.69454Z" fill="#FBF6EB"/>
<path d="M9.05956 8.07625V1.5625H7.76465V6.92979C7.76465 7.1456 7.58984 7.32042 7.37402 7.32042C7.1582 7.32042 6.9834 7.14561 6.9834 6.92979V1.5625H5.40429V6.92979C5.40429 7.1456 5.22949 7.32042 5.01367 7.32042C4.79785 7.32042 4.62304 7.14561 4.62304 6.92979V1.5625H3.32812V8.07625C3.32812 8.75887 3.88281 9.31454 4.56544 9.31454H7.82127C8.5039 9.31454 9.05956 8.75985 9.05956 8.07625Z" fill="#FBF6EB"/>
<path d="M14.3137 10.0977L13.7434 22.3164C13.7297 22.6123 13.8352 22.8936 14.0393 23.1074C14.4475 23.5352 15.1799 23.5352 15.5881 23.1074C15.7932 22.8926 15.8977 22.6123 15.884 22.3164L15.3137 10.0977H14.3127H14.3137Z" fill="#FBF6EB"/>
<path d="M17.6768 7.00979V4.42771C17.6768 2.84762 16.3916 1.5625 14.8116 1.5625C13.2315 1.5625 11.9453 2.84767 11.9453 4.42771V7.00979C11.9453 8.28029 12.9785 9.31437 14.2499 9.31437H15.3729C16.6434 9.31437 17.6775 8.28117 17.6775 7.00979H17.6768Z" fill="#FBF6EB"/>
<path d="M21.4074 23.1014C21.6028 23.3182 21.8703 23.4374 22.1614 23.4374C22.7199 23.4374 23.175 22.9823 23.175 22.4237V11.6758H22.3069L21.1545 22.3145C21.1233 22.6046 21.2131 22.8829 21.4075 23.1007L21.4074 23.1014Z" fill="#FBF6EB"/>
<path d="M23.1757 1.76562C22.3007 2.25683 20.5703 3.74706 20.5703 7.84958V10.0615L22.0586 10.8935H23.1758L23.1757 1.76562Z" fill="#FBF6EB"/>
</svg>
