<svg width="20" height="20" viewBox="0 0 20 20" fill="none" xmlns="http://www.w3.org/2000/svg">
<path d="M15.6805 0.760042C16.6571 -0.24196 18.2709 -0.254922 19.2638 0.73126C20.2294 1.69042 20.2474 3.23994 19.3043 4.22095L16.4912 7.14684C16.2707 7.37618 16.1605 7.49084 16.0926 7.62514C16.0324 7.74403 15.9966 7.8736 15.9873 8.00632C15.9767 8.15625 16.0126 8.31075 16.0844 8.61974L17.8336 16.1488C17.9073 16.466 17.9442 16.6245 17.9323 16.7779C17.9218 16.9137 17.8836 17.0459 17.8201 17.1666C17.7483 17.303 17.6324 17.418 17.4007 17.6482L17.0253 18.021C16.4117 18.6305 16.1049 18.9353 15.7908 18.9904C15.5166 19.0386 15.2346 18.9725 15.011 18.8076C14.7549 18.6188 14.6177 18.2099 14.3433 17.3922L12.3087 11.3295L8.92198 14.6933C8.71982 14.8941 8.61874 14.9945 8.55113 15.1127C8.49123 15.2175 8.45076 15.3321 8.43166 15.451C8.4101 15.5853 8.42589 15.7264 8.45746 16.0086L8.64344 17.6712C8.67501 17.9534 8.6908 18.0945 8.66924 18.2288C8.65014 18.3478 8.60967 18.4623 8.54977 18.5671C8.48216 18.6853 8.38108 18.7857 8.17892 18.9865L7.97897 19.1851C7.50006 19.6608 7.26061 19.8986 6.99451 19.9675C6.76111 20.0279 6.51366 20.0036 6.29673 19.8989C6.04939 19.7795 5.86155 19.4996 5.48586 18.9399L3.89814 16.5744C3.83102 16.4744 3.79746 16.4244 3.7585 16.379C3.72389 16.3387 3.68612 16.3012 3.64557 16.2668C3.59991 16.2282 3.54957 16.1948 3.44889 16.1281L1.06731 14.5511C0.503772 14.178 0.222005 13.9914 0.101817 13.7457C-0.00360162 13.5303 -0.0281037 13.2845 0.0327226 13.0527C0.102071 12.7884 0.341527 12.5505 0.820438 12.0748L1.02039 11.8762C1.22254 11.6754 1.32362 11.575 1.44265 11.5079C1.54811 11.4484 1.66346 11.4082 1.78322 11.3892C1.91841 11.3678 2.06048 11.3835 2.34463 11.4148L4.01847 11.5996C4.30261 11.6309 4.44468 11.6466 4.57987 11.6252C4.69963 11.6062 4.81499 11.566 4.92044 11.5065C5.03948 11.4394 5.14055 11.339 5.34271 11.1382L8.72941 7.77432L2.62555 5.75342C1.80227 5.48084 1.39062 5.34456 1.2005 5.09025C1.03449 4.86818 0.967902 4.588 1.0164 4.31564C1.07195 4.00373 1.37877 3.69898 1.99241 3.08947L2.36777 2.71665C2.59949 2.48649 2.71536 2.37141 2.85263 2.30012C2.97412 2.23703 3.10725 2.19911 3.24394 2.18865C3.39839 2.17684 3.55804 2.21343 3.87736 2.28662L11.4288 4.0175C11.7426 4.08943 11.8994 4.12539 12.0509 4.11469C12.1972 4.10436 12.3394 4.0626 12.4678 3.9923C12.6008 3.91948 12.7128 3.80458 12.9368 3.57478L15.6805 0.760042Z" fill="black"/>
</svg>
