<svg width="30" height="19" viewBox="0 0 30 19" fill="none" xmlns="http://www.w3.org/2000/svg">
<path d="M9.51666 1.04077C12.4355 1.04077 12.8526 3.54267 15.3545 3.54267C17.8564 3.54267 17.4394 0.623788 19.5244 1.04077C21.4735 1.4306 23.0582 3.64259 23.2563 9.38039C24.9312 9.79739 28.4478 11.2152 29.115 13.5502C29.9489 16.4691 19.9413 17.7201 15.3545 17.7201C10.4897 17.4421 0.76011 16.4691 1.17707 12.2993C2.01106 10.6314 4.92995 9.79738 6.72933 9.38039C6.36071 6.47546 7.0329 1.04077 9.51666 1.04077Z" fill="#FBF6EB"/>
<path d="M23.2563 9.38039C23.0582 3.64259 21.4735 1.4306 19.5244 1.04077C17.4394 0.623788 17.8564 3.54267 15.3545 3.54267C12.8526 3.54267 12.4355 1.04077 9.51666 1.04077C7.0329 1.04077 6.36071 6.47546 6.72933 9.38039M23.2563 9.38039C23.2701 9.78009 23.2772 10.1969 23.2772 10.6314C23.2772 11.95 19.5244 12.7163 15.3545 12.7163C12.0187 12.7163 8.40473 11.3264 7.01476 10.6314C6.89043 10.3206 6.79391 9.88931 6.72933 9.38039M23.2563 9.38039C24.9312 9.79739 28.4478 11.2152 29.115 13.5502C29.9489 16.4691 19.9413 17.7201 15.3545 17.7201C10.4897 17.4421 0.76011 16.4691 1.17707 12.2993C2.01106 10.6314 4.92995 9.79738 6.72933 9.38039" stroke="#FBF6EB"/>
<path d="M6.03125 8.33594C7.71893 8.89192 12.2536 9.33829 14.9539 9.33829C17.6542 9.33829 22.4764 8.83359 24.1641 8.5" stroke="#001426"/>
</svg>
