<svg width="30" height="19" viewBox="0 0 30 19" fill="none" xmlns="http://www.w3.org/2000/svg">
<path d="M9.01666 1.04077C11.9355 1.04077 12.3526 3.54267 14.8545 3.54267C17.3564 3.54267 16.9394 0.623788 19.0244 1.04077C20.9735 1.4306 22.5582 3.64259 22.7563 9.38039C24.4312 9.79739 27.9478 11.2152 28.615 13.5502C29.4489 16.4691 19.4413 17.7201 14.8545 17.7201C9.98971 17.4421 0.26011 16.4691 0.677073 12.2993C1.51106 10.6314 4.42995 9.79738 6.22933 9.38039C5.86071 6.47546 6.5329 1.04077 9.01666 1.04077Z" fill="black"/>
<path d="M22.7563 9.38039C22.5582 3.64259 20.9735 1.4306 19.0244 1.04077C16.9394 0.623788 17.3564 3.54267 14.8545 3.54267C12.3526 3.54267 11.9355 1.04077 9.01666 1.04077C6.5329 1.04077 5.86071 6.47546 6.22933 9.38039M22.7563 9.38039C22.7701 9.78009 22.7772 10.1969 22.7772 10.6314C22.7772 11.95 19.0244 12.7163 14.8545 12.7163C11.5187 12.7163 7.90473 11.3264 6.51476 10.6314C6.39043 10.3206 6.29391 9.88931 6.22933 9.38039M22.7563 9.38039C24.4312 9.79739 27.9478 11.2152 28.615 13.5502C29.4489 16.4691 19.4413 17.7201 14.8545 17.7201C9.98971 17.4421 0.26011 16.4691 0.677073 12.2993C1.51106 10.6314 4.42995 9.79738 6.22933 9.38039" stroke="black"/>
<path d="M5.53125 8.33594C7.21893 8.89192 11.7536 9.33829 14.4539 9.33829C17.1542 9.33829 21.9764 8.83359 23.6641 8.5" stroke="white"/>
</svg>
