<svg width="21" height="20" viewBox="0 0 21 20" fill="none" xmlns="http://www.w3.org/2000/svg">
<path d="M15.9305 0.760042C16.9071 -0.24196 18.5209 -0.254922 19.5138 0.73126C20.4794 1.69042 20.4974 3.23994 19.5543 4.22095L16.7412 7.14684C16.5207 7.37618 16.4105 7.49084 16.3426 7.62514C16.2824 7.74403 16.2466 7.8736 16.2373 8.00632C16.2267 8.15625 16.2626 8.31075 16.3344 8.61974L18.0836 16.1488C18.1573 16.466 18.1942 16.6245 18.1823 16.7779C18.1718 16.9137 18.1336 17.0459 18.0701 17.1666C17.9983 17.303 17.8824 17.418 17.6507 17.6482L17.2753 18.021C16.6617 18.6305 16.3549 18.9353 16.0408 18.9904C15.7666 19.0386 15.4846 18.9725 15.261 18.8076C15.0049 18.6188 14.8677 18.2099 14.5933 17.3922L12.5587 11.3295L9.17198 14.6933C8.96982 14.8941 8.86874 14.9945 8.80113 15.1127C8.74123 15.2175 8.70076 15.3321 8.68166 15.451C8.6601 15.5853 8.67589 15.7264 8.70746 16.0086L8.89344 17.6712C8.92501 17.9534 8.9408 18.0945 8.91924 18.2288C8.90014 18.3478 8.85967 18.4623 8.79977 18.5671C8.73216 18.6853 8.63108 18.7857 8.42892 18.9865L8.22897 19.1851C7.75006 19.6608 7.51061 19.8986 7.24451 19.9675C7.01111 20.0279 6.76366 20.0036 6.54673 19.8989C6.29939 19.7795 6.11155 19.4996 5.73586 18.9399L4.14814 16.5744C4.08102 16.4744 4.04746 16.4244 4.0085 16.379C3.97389 16.3387 3.93612 16.3012 3.89557 16.2668C3.84991 16.2282 3.79957 16.1948 3.69889 16.1281L1.31731 14.5511C0.753772 14.178 0.472005 13.9914 0.351817 13.7457C0.246398 13.5303 0.221896 13.2845 0.282723 13.0527C0.352071 12.7884 0.591527 12.5505 1.07044 12.0748L1.27039 11.8762C1.47254 11.6754 1.57362 11.575 1.69265 11.5079C1.79811 11.4484 1.91346 11.4082 2.03322 11.3892C2.16841 11.3678 2.31048 11.3835 2.59463 11.4148L4.26847 11.5996C4.55261 11.6309 4.69468 11.6466 4.82987 11.6252C4.94963 11.6062 5.06499 11.566 5.17044 11.5065C5.28948 11.4394 5.39055 11.339 5.59271 11.1382L8.97941 7.77432L2.87555 5.75342C2.05227 5.48084 1.64062 5.34456 1.4505 5.09025C1.28449 4.86818 1.2179 4.588 1.2664 4.31564C1.32195 4.00373 1.62877 3.69898 2.24241 3.08947L2.61777 2.71665C2.84949 2.48649 2.96536 2.37141 3.10263 2.30012C3.22412 2.23703 3.35725 2.19911 3.49394 2.18865C3.64839 2.17684 3.80804 2.21343 4.12736 2.28662L11.6788 4.0175C11.9926 4.08943 12.1494 4.12539 12.3009 4.11469C12.4472 4.10436 12.5894 4.0626 12.7178 3.9923C12.8508 3.91948 12.9628 3.80458 13.1868 3.57478L15.9305 0.760042Z" fill="#FBF6EB"/>
</svg>
