<svg width="21" height="26" viewBox="0 0 21 26" fill="none" xmlns="http://www.w3.org/2000/svg">
<path fill-rule="evenodd" clip-rule="evenodd" d="M18.8427 22.2062C18.4141 22.9479 17.9855 23.5042 17.4687 24.0206C16.8889 24.5636 16.725 25.0405 15.3888 25.2261C14.4434 25.4115 13.624 25.0405 13.3089 24.8949C12.3635 24.4312 11.8717 24.2857 11.3046 24.2857C10.75 24.2857 10.2836 24.4314 9.3508 24.8817C9.06087 25.0405 8.27934 25.3982 7.32132 25.2128C6.3381 25.0274 5.83388 24.63 5.46832 24.2989C4.712 23.5969 4.14475 22.9347 3.62793 22.1665L18.8427 22.2062Z" fill="#1E71B8"/>
<path fill-rule="evenodd" clip-rule="evenodd" d="M1.49707 9.8489C1.93826 8.80256 2.51811 8.10058 3.09796 7.61052C4.5728 6.33901 6.98044 6.25955 8.08972 6.56418C8.99731 6.80258 9.64018 7.38536 10.6612 7.38536C11.7327 7.38536 12.3502 6.81583 13.1949 6.56418C14.3042 6.27279 16.7244 6.3655 18.3001 7.63701C18.7665 8.00787 19.1949 8.51117 19.4344 8.78931C18.8674 9.22639 18.5268 9.54427 18.2495 9.8489H1.49707Z" fill="#6FB353"/>
<path fill-rule="evenodd" clip-rule="evenodd" d="M18.2512 9.84888C17.9865 10.1535 17.7974 10.4449 17.5831 10.8555C17.3312 11.3323 17.0285 11.9813 16.9529 12.9614H0.754883C0.767488 12.8025 0.780094 12.6303 0.805305 12.4581C0.95657 11.4118 1.19607 10.5509 1.4986 9.84888H18.2512Z" fill="#FFF22D"/>
<path fill-rule="evenodd" clip-rule="evenodd" d="M16.9517 12.9614C16.9391 13.2615 16.9391 13.562 16.9517 13.8621C16.9895 14.5905 17.229 15.3985 17.5442 16.0475L1.06885 16.0077C0.841954 14.9614 0.715899 13.8886 0.753716 12.9614H16.9517Z" fill="#E0922F"/>
<path fill-rule="evenodd" clip-rule="evenodd" d="M17.5445 16.0475C17.6735 16.3286 17.8298 16.5949 18.0109 16.8422C19.0949 18.2992 19.5613 18.2992 20.4059 18.7495C20.3431 18.9083 20.2926 19.0541 20.2294 19.1866L2.02735 19.1468C1.6744 18.3389 1.30884 17.1998 1.06934 16.0078L17.5445 16.0475Z" fill="#CC2229"/>
<path fill-rule="evenodd" clip-rule="evenodd" d="M20.2284 19.1865C19.6992 20.4845 19.2704 21.4379 18.8418 22.2063L3.62726 22.1666C3.12304 21.3851 2.66924 20.524 2.15242 19.4512C2.11461 19.3585 2.06418 19.2525 2.02637 19.1467L20.2284 19.1865Z" fill="#5A308D"/>
<path fill-rule="evenodd" clip-rule="evenodd" d="M14.9471 2.60391C14.8589 3.26616 14.5437 4.11383 14.0395 4.65686C13.4973 5.26613 12.6529 5.92837 12.1485 6.25949C11.8712 6.44492 11.1527 6.47141 10.5604 6.53763C10.4848 5.98135 10.4722 5.50453 10.6361 4.98798C10.8503 4.37872 11.1278 3.50456 11.5689 2.8953C12.1109 2.14034 12.7286 1.62379 13.0689 1.43837C13.5229 1.19996 14.2792 0.842348 14.9345 0.723145C14.9599 1.33241 15.0481 2.02114 14.9471 2.60391Z" fill="#6FB353"/>
</svg>
